<svg xmlns="http://www.w3.org/2000/svg" xmlns:xlink="http://www.w3.org/1999/xlink" width="175" height="175" viewBox="0 0 175 175">
  <defs>
    <filter id="Ellipse_1436" x="0" y="0" width="175" height="175" filterUnits="userSpaceOnUse">
      <feOffset dy="2" input="SourceAlpha"/>
      <feGaussianBlur stdDeviation="12.5" result="blur"/>
      <feFlood flood-opacity="0"/>
      <feComposite operator="in" in2="blur"/>
      <feComposite in="SourceGraphic"/>
    </filter>
  </defs>
  <g id="Group_5984" data-name="Group 5984" transform="translate(-1272.5 -1664.5)">
    <g transform="matrix(1, 0, 0, 1, 1272.5, 1664.5)" filter="url(#Ellipse_1436)">
      <circle id="Ellipse_1436-2" data-name="Ellipse 1436" cx="50" cy="50" r="50" transform="translate(37.5 35.5)" fill="#0720f4"/>
    </g>
    <path id="Layer_2" data-name="Layer 2" d="M30,15c0,10.91-12.692,23.728-13.232,24.268a2.5,2.5,0,0,1-3.536,0C12.692,38.727,0,25.91,0,15a15,15,0,1,1,30,0ZM15,22.5A7.5,7.5,0,1,0,7.5,15,7.5,7.5,0,0,0,15,22.5Z" transform="translate(1345 1730)" fill="#fff"/>
  </g>
</svg>
