<svg xmlns="http://www.w3.org/2000/svg" width="73.043" height="60" viewBox="0 0 73.043 60">
  <path id="video_2_" data-name="video (2)" d="M77.043,20.961V57.052A11.961,11.961,0,0,1,65.1,69H15.961A11.974,11.974,0,0,1,4,57.039V20.961A11.974,11.974,0,0,1,15.961,9H65.083A11.974,11.974,0,0,1,77.043,20.961Zm-39.783,31.9,15.117-9.13a5.609,5.609,0,0,0,0-9.6l-15.117-9a5.6,5.6,0,0,0-8.478,4.8v18.2a5.517,5.517,0,0,0,2.843,4.878,5.648,5.648,0,0,0,2.752.73,5.517,5.517,0,0,0,2.883-.874ZM34.574,29.609l15.117,9.13a.378.378,0,0,1,0,.652l-15.117,9.13A.378.378,0,0,1,34,48.13v-18.2a.365.365,0,0,1,.2-.339.352.352,0,0,1,.183,0A.274.274,0,0,1,34.574,29.609Zm-16.226,2.87V24.652a2.609,2.609,0,0,0-5.217,0v7.826a2.609,2.609,0,1,0,5.217,0Z" transform="translate(-4 -9)" fill="#8f8ff7"/>
</svg>
