<svg id="Слой_1" data-name="Слой 1" xmlns="http://www.w3.org/2000/svg" width="74.323" height="60" viewBox="0 0 74.323 60">
  <path id="Path_5" data-name="Path 5" d="M.006,57.909a2.336,2.336,0,0,0,1.842,2.067A2.336,2.336,0,0,0,4.5,58.359,39,39,0,0,1,15.012,44.88a39.761,39.761,0,0,1,24.935-8.986h9.48v8.222a1.977,1.977,0,0,0,.629,1.393A1.932,1.932,0,0,0,51.313,46a1.842,1.842,0,0,0,1.258-.494L73.777,24.3a1.887,1.887,0,0,0,0-2.651L52.616.537a1.887,1.887,0,0,0-3.19,1.3v8.222H45.607A46.186,46.186,0,0,0,9.665,28.032,48.432,48.432,0,0,0,.006,57.909Z" transform="translate(0.002 -0.014)" fill="#8f8ff7"/>
</svg>
