<svg xmlns="http://www.w3.org/2000/svg" xmlns:xlink="http://www.w3.org/1999/xlink" width="175" height="175" viewBox="0 0 175 175">
  <defs>
    <filter id="Ellipse_1432" x="0" y="0" width="175" height="175" filterUnits="userSpaceOnUse">
      <feOffset dy="2" input="SourceAlpha"/>
      <feGaussianBlur stdDeviation="12.5" result="blur"/>
      <feFlood flood-opacity="0"/>
      <feComposite operator="in" in2="blur"/>
      <feComposite in="SourceGraphic"/>
    </filter>
  </defs>
  <g id="Group_5982" data-name="Group 5982" transform="translate(-900.5 -1371.5)">
    <g transform="matrix(1, 0, 0, 1, 900.5, 1371.5)" filter="url(#Ellipse_1432)">
      <circle id="Ellipse_1432-2" data-name="Ellipse 1432" cx="50" cy="50" r="50" transform="translate(37.5 35.5)" fill="#0720f4"/>
    </g>
    <g id="Group_5955" data-name="Group 5955" transform="translate(47.598 -61.005)">
      <path id="Path_6500" data-name="Path 6500" d="M67.528,40h-39.9A3.631,3.631,0,0,0,24,43.627V76.273A3.631,3.631,0,0,0,27.627,79.9h39.9a3.631,3.631,0,0,0,3.627-3.627V43.627A3.631,3.631,0,0,0,67.528,40ZM46.917,70.775a1.814,1.814,0,0,1-2.209-1.3,5.443,5.443,0,0,0-10.539,0,1.814,1.814,0,1,1-3.513-.9,9.045,9.045,0,0,1,3.709-5.251,7.255,7.255,0,1,1,10.147,0,9.045,9.045,0,0,1,3.709,5.25A1.814,1.814,0,0,1,46.917,70.775Zm15.17-5.383H53.019a1.814,1.814,0,0,1,0-3.627h9.068a1.814,1.814,0,0,1,0,3.627Zm0-7.255H53.019a1.814,1.814,0,0,1,0-3.627h9.068a1.814,1.814,0,0,1,0,3.627Z" transform="translate(892.402 1458.005)" fill="#fff"/>
      <circle id="Ellipse_1430" data-name="Ellipse 1430" cx="3.627" cy="3.627" r="3.627" transform="translate(928.214 1512.514)" fill="#fff"/>
    </g>
  </g>
</svg>
