<svg xmlns="http://www.w3.org/2000/svg" width="72.826" height="61.622" viewBox="0 0 72.826 61.622">
  <g id="Group_5955" data-name="Group 5955" transform="translate(-916.402 -1498.005)">
    <path id="Path_6500" data-name="Path 6500" d="M91.224,40H29.6A5.608,5.608,0,0,0,24,45.6V96.02a5.608,5.608,0,0,0,5.6,5.6H91.224a5.608,5.608,0,0,0,5.6-5.6V45.6A5.608,5.608,0,0,0,91.224,40ZM59.393,87.528a2.8,2.8,0,0,1-3.411-2.014,8.407,8.407,0,0,0-16.277,0,2.8,2.8,0,1,1-5.425-1.4,13.969,13.969,0,0,1,5.728-8.109,11.2,11.2,0,1,1,15.671,0,13.969,13.969,0,0,1,5.728,8.109A2.8,2.8,0,0,1,59.393,87.528Zm23.428-8.314H68.816a2.8,2.8,0,0,1,0-5.6H82.821a2.8,2.8,0,0,1,0,5.6Zm0-11.2H68.816a2.8,2.8,0,0,1,0-5.6H82.821a2.8,2.8,0,0,1,0,5.6Z" transform="translate(892.402 1458.005)" fill="#8f8ff7"/>
    <circle id="Ellipse_1430" data-name="Ellipse 1430" cx="5.602" cy="5.602" r="5.602" transform="translate(934.645 1520.413)" fill="#8f8ff7"/>
  </g>
</svg>
