<svg xmlns="http://www.w3.org/2000/svg" width="29.538" height="35" viewBox="0 0 29.538 35">
  <g id="apple" opacity="0.8">
    <path id="Path_965" data-name="Path 965" d="M31.487,24.288v-.238a7.5,7.5,0,0,1-4.428-7.03,7.591,7.591,0,0,1,3.309-6.407l.1-.048c-1.411-1.721-3.309-3.441-6.229-3.441-2.043,0-3.747,1.96-6.569,1.96-2.238,0-3.164-1.865-5.6-1.865A10.4,10.4,0,0,0,2,17.451,26.593,26.593,0,0,0,5.307,29.358c1.655,3.013,3.7,4.973,5.986,4.973,1.654,0,3.6-1.482,5.937-1.482,2.043,0,3.942,1.34,5.79,1.34,4.429,0,8.516-5.642,8.516-9.419C31.536,24.575,31.487,24.432,31.487,24.288Z" transform="translate(-1.998 0.669)" fill-rule="evenodd"/>
    <path id="Path_966" data-name="Path 966" d="M16.241,9.133c3.309-1,6.375-3.444,6.375-7.7,0-.335-.048-.765-.1-1.243L22.471,0C19.114.907,16.1,3.49,16.1,7.555a7.987,7.987,0,0,0,.145,1.387v.191Z" transform="translate(-0.674)" fill-rule="evenodd"/>
  </g>
</svg>
