<svg xmlns="http://www.w3.org/2000/svg" width="40.324" height="35" viewBox="0 0 40.324 35">
  <path id="candidate" d="M84.132,36.949A1.26,1.26,0,0,0,82.867,38.2v4.428H71.242q-.06,0-.121,0a1.26,1.26,0,0,0-1.137,1.255v6.34l15.758,4.238v-.047A1.26,1.26,0,0,1,87,53.152h6.3a1.26,1.26,0,0,1,1.255,1.265v.049l15.758-4.223V43.886a1.259,1.259,0,0,0-1.265-1.255H97.425V38.2a1.26,1.26,0,0,0-1.265-1.255Zm1.255,2.52H94.9v3.162H85.387Zm-15.4,13.373V70.694a1.26,1.26,0,0,0,1.257,1.255h37.8a1.26,1.26,0,0,0,1.265-1.255V52.854L94.55,57.07v2.239a1.26,1.26,0,0,1-1.255,1.265H87a1.26,1.26,0,0,1-1.255-1.265V57.07Zm18.278,2.83a1.261,1.261,0,0,1,0,.908v1.472h3.768V56.58a1.261,1.261,0,0,1,0-.908Z" transform="translate(-69.984 -36.949)" fill="#fff"/>
</svg>
