<svg xmlns="http://www.w3.org/2000/svg" width="34.563" height="30" viewBox="0 0 34.563 30">
  <path id="experience" d="M82.111,36.949a1.08,1.08,0,0,0-1.084,1.076v3.8H71.062q-.052,0-.1,0a1.08,1.08,0,0,0-.974,1.076v5.434l13.506,3.632v-.04a1.08,1.08,0,0,1,1.076-1.084h5.4a1.08,1.08,0,0,1,1.076,1.084v.042l13.507-3.62V42.9a1.079,1.079,0,0,0-1.084-1.076H93.5v-3.8a1.08,1.08,0,0,0-1.084-1.076Zm1.076,2.16h8.157V41.82H83.187Zm-13.2,11.462v15.3a1.08,1.08,0,0,0,1.078,1.076h32.4a1.08,1.08,0,0,0,1.084-1.076V50.582L91.04,54.2v1.919A1.08,1.08,0,0,1,89.965,57.2h-5.4a1.08,1.08,0,0,1-1.076-1.084V54.2ZM85.651,53a1.081,1.081,0,0,1,0,.778v1.261H88.88V53.776a1.081,1.081,0,0,1,0-.778Z" transform="translate(-69.984 -36.949)" fill="#fff"/>
</svg>
