<svg xmlns="http://www.w3.org/2000/svg" width="35" height="35" viewBox="0 0 35 35">
  <g id="google" transform="translate(0.214 0.171)">
    <g id="Google-2" data-name="Google" transform="translate(-0.212 -0.173)">
      <rect id="Rectangle_3571" data-name="Rectangle 3571" width="35" height="35" transform="translate(-0.001 0.001)" fill="none"/>
      <path id="Path_969" data-name="Path 969" d="M8.284,43.128a9.983,9.983,0,0,1,.507-3.135L3.1,35.648A17,17,0,0,0,3.1,50.6l5.688-4.354a9.989,9.989,0,0,1-.5-3.121" transform="translate(-0.532 -25.797)" fill="#fbbc05" fill-rule="evenodd"/>
      <path id="Path_970" data-name="Path 970" d="M23.114,6.908A9.784,9.784,0,0,1,29.34,9.134l4.919-4.912A16.9,16.9,0,0,0,7.938,9.405l5.691,4.346a9.965,9.965,0,0,1,9.485-6.843" transform="translate(-5.37 0.446)" fill="#ea4335" fill-rule="evenodd"/>
      <path id="Path_971" data-name="Path 971" d="M23.114,82.724a9.965,9.965,0,0,1-9.485-6.843L7.938,80.226a16.859,16.859,0,0,0,15.176,9.406,16.114,16.114,0,0,0,11.017-4.208l-5.4-4.176a10.461,10.461,0,0,1-5.616,1.477" transform="translate(-5.37 -55.415)" fill="#34a853" fill-rule="evenodd"/>
      <path id="Path_972" data-name="Path 972" d="M81.6,55.434a13.986,13.986,0,0,0-.384-3.07H65.457v6.524h9.07a7.6,7.6,0,0,1-3.454,5.047l5.4,4.176A16.794,16.794,0,0,0,81.6,55.434" transform="translate(-47.713 -38.103)" fill="#4285f4" fill-rule="evenodd"/>
    </g>
  </g>
</svg>
