<svg xmlns="http://www.w3.org/2000/svg" width="28.588" height="28.588" viewBox="0 0 28.588 28.588">
  <path id="qr-code-scan" d="M10.1,26.989H4.9a1.3,1.3,0,0,1-1.3-1.3v-5.2a1.3,1.3,0,1,0-2.6,0v5.2a3.9,3.9,0,0,0,3.9,3.9h5.2a1.3,1.3,0,0,0,0-2.6Zm18.192-7.8a1.3,1.3,0,0,0-1.3,1.3v5.2a1.3,1.3,0,0,1-1.3,1.3h-5.2a1.3,1.3,0,1,0,0,2.6h5.2a3.9,3.9,0,0,0,3.9-3.9v-5.2A1.3,1.3,0,0,0,28.288,19.192ZM25.69,1h-5.2a1.3,1.3,0,1,0,0,2.6h5.2a1.3,1.3,0,0,1,1.3,1.3v5.2a1.3,1.3,0,0,0,2.6,0V4.9A3.9,3.9,0,0,0,25.69,1ZM2.3,11.4a1.3,1.3,0,0,0,1.3-1.3V4.9A1.3,1.3,0,0,1,4.9,3.6h5.2a1.3,1.3,0,1,0,0-2.6H4.9A3.9,3.9,0,0,0,1,4.9v5.2A1.3,1.3,0,0,0,2.3,11.4ZM12.7,6.2H7.5A1.3,1.3,0,0,0,6.2,7.5v5.2a1.3,1.3,0,0,0,1.3,1.3h5.2a1.3,1.3,0,0,0,1.3-1.3V7.5A1.3,1.3,0,0,0,12.7,6.2Zm-1.3,5.2H8.8V8.8h2.6Zm6.5,2.6h5.2a1.3,1.3,0,0,0,1.3-1.3V7.5a1.3,1.3,0,0,0-1.3-1.3h-5.2a1.3,1.3,0,0,0-1.3,1.3v5.2A1.3,1.3,0,0,0,17.893,13.994Zm1.3-5.2h2.6v2.6h-2.6Zm-6.5,7.8H7.5a1.3,1.3,0,0,0-1.3,1.3v5.2a1.3,1.3,0,0,0,1.3,1.3h5.2a1.3,1.3,0,0,0,1.3-1.3v-5.2A1.3,1.3,0,0,0,12.7,16.593Zm-1.3,5.2H8.8v-2.6h2.6Zm6.5-1.3a1.3,1.3,0,0,0,1.3-1.3,1.3,1.3,0,1,0,0-2.6h-1.3a1.3,1.3,0,0,0-1.3,1.3v1.3A1.3,1.3,0,0,0,17.893,20.492Zm5.2-3.9a1.3,1.3,0,0,0-1.3,1.3v3.9a1.3,1.3,0,1,0,0,2.6h1.3a1.3,1.3,0,0,0,1.3-1.3v-5.2A1.3,1.3,0,0,0,23.091,16.593Zm-5.2,5.2a1.3,1.3,0,1,0,1.3,1.3A1.3,1.3,0,0,0,17.893,21.791Z" transform="translate(-1 -1)"/>
</svg>
