<svg xmlns="http://www.w3.org/2000/svg" width="42.667" height="31.889" viewBox="0 0 42.667 31.889">
  <g id="group-users" transform="translate(0 -0.111)">
    <circle id="Ellipse_1472" data-name="Ellipse 1472" cx="5.5" cy="5.5" r="5.5" transform="translate(1.444 0.111)" fill="#fff"/>
    <path id="Path_28128" data-name="Path 28128" d="M12.96,11.9A12.428,12.428,0,0,0,7.111,22.444H3.556A3.566,3.566,0,0,1,0,18.889V15.333A5.349,5.349,0,0,1,5.333,10H8.889a5.333,5.333,0,0,1,4.071,1.9Z" transform="translate(0 2.444)" fill="#fff"/>
    <ellipse id="Ellipse_1473" data-name="Ellipse 1473" cx="5" cy="5.5" rx="5" ry="5.5" transform="translate(30.444 0.111)" fill="#fff"/>
    <path id="Path_28129" data-name="Path 28129" d="M29.669,15.333v3.556a3.566,3.566,0,0,1-3.556,3.556H22.558A12.428,12.428,0,0,0,16.711,11.9,5.333,5.333,0,0,1,20.78,10h3.556a5.349,5.349,0,0,1,5.333,5.333Z" transform="translate(12.997 2.444)" fill="#fff"/>
    <circle id="Ellipse_1474" data-name="Ellipse 1474" cx="7" cy="7" r="7" transform="translate(14.444 0.111)" fill="#fff"/>
    <path id="Path_28130" data-name="Path 28130" d="M27.333,20.889v1.778A5.349,5.349,0,0,1,22,28H11.333A5.349,5.349,0,0,1,6,22.667V20.889A8.889,8.889,0,0,1,14.889,12h3.556A8.889,8.889,0,0,1,27.333,20.889Z" transform="translate(4.667 4)" fill="#fff"/>
  </g>
</svg>
