<svg xmlns="http://www.w3.org/2000/svg" width="34.449" height="17.897" viewBox="0 0 34.449 17.897">
  <path id="hat" d="M156.938,169.006c0-.013-.013-.013-.013-.027a.751.751,0,0,0-.093-.292c-.013-.027-.027-.04-.04-.066a.7.7,0,0,0-.265-.212l-16.562-6.625a.63.63,0,0,0-.49,0l-16.562,6.625a.693.693,0,0,0-.424.6.669.669,0,0,0,.384.623l3.736,1.762v7.579a.656.656,0,0,0,.662.662h24.895a.656.656,0,0,0,.662-.662V171.39l2.782-1.312v5.578a.662.662,0,1,0,1.325,0v-6.651h0Zm-5.445,9.3H127.936v-6.373l11.553,4.346a.737.737,0,0,0,.477,0l11.553-4.346v6.373Zm.411-7.95-12.189,4.6-12.189-4.584-2.716-1.285,14.906-5.962,14.906,5.962Z" transform="translate(-122.49 -161.735)" fill="#fff"/>
</svg>
