<svg xmlns="http://www.w3.org/2000/svg" width="18.524" height="20" viewBox="0 0 18.524 20">
  <path id="home" d="M181.181,85.158l-5.766-5.279a3.473,3.473,0,0,0-4.708,0l-5.766,5.279a3.491,3.491,0,0,0-1.142,2.577v7.744a3.483,3.483,0,0,0,3.482,3.482h11.56a3.483,3.483,0,0,0,3.482-3.482V87.734a3.492,3.492,0,0,0-1.142-2.577ZM170.916,94.1a.582.582,0,0,1-.153.223.9.9,0,0,1-.223.153.868.868,0,0,1-.265.042.7.7,0,0,1-.488-.195.582.582,0,0,1-.153-.223.647.647,0,0,1-.056-.265.662.662,0,0,1,.209-.5.725.725,0,0,1,.975,0,.662.662,0,0,1,.209.5A.647.647,0,0,1,170.916,94.1Zm2.632.223a.709.709,0,0,1-.488.209.691.691,0,0,1-.488-.209.676.676,0,0,1-.209-.488.664.664,0,0,1,.056-.279.583.583,0,0,1,.153-.223.89.89,0,0,1,.223-.153.715.715,0,0,1,.752.153.582.582,0,0,1,.153.223.623.623,0,0,1,.056.279A.676.676,0,0,1,173.548,94.322Zm2.939-.223a.582.582,0,0,1-.153.223.691.691,0,0,1-.488.209.709.709,0,0,1-.488-.209.582.582,0,0,1-.153-.223.664.664,0,0,1-.056-.279.675.675,0,0,1,.209-.487.715.715,0,0,1,.752-.153.891.891,0,0,1,.223.153.675.675,0,0,1,.209.487A.664.664,0,0,1,176.487,94.1Z" transform="translate(-163.799 -78.96)" fill="#fff"/>
</svg>
