<svg xmlns="http://www.w3.org/2000/svg" width="29" height="30" viewBox="0 0 29 30">
  <path id="language" d="M8.694,29.463a2.156,2.156,0,0,1-.6-2.432,12.966,12.966,0,0,0,.857-4.2H4.474A4.458,4.458,0,0,1,0,18.379V4.453A4.458,4.458,0,0,1,4.474,0H24.526A4.458,4.458,0,0,1,29,4.453V18.411a4.458,4.458,0,0,1-4.474,4.453h-5.9A26,26,0,0,1,11.2,29.716,2.2,2.2,0,0,1,10.121,30,2.229,2.229,0,0,1,8.694,29.463ZM6.917,11.653A7.583,7.583,0,1,0,14.5,4.105,7.565,7.565,0,0,0,6.917,11.653ZM14.5,18.284h-.349c0-.032-.032-.063-.064-.095a9.146,9.146,0,0,1-1.65-2.81,11.321,11.321,0,0,1,4.125,0,9.145,9.145,0,0,1-1.65,2.81c0,.032-.032.063-.064.095Zm1.777-.316A11.883,11.883,0,0,0,17.482,15.6h0a8.012,8.012,0,0,1,1.713.663c.032,0,.032.031.064.031a6.872,6.872,0,0,1-3.046,1.768C16.245,18.032,16.245,18,16.277,17.968ZM9.741,16.295c.032,0,.032-.031.064-.031a8.011,8.011,0,0,1,1.713-.663h0a11.877,11.877,0,0,0,1.206,2.368c.032.032.032.063.064.095A6.583,6.583,0,0,1,9.741,16.295ZM7.869,12.126h2.982a14.509,14.509,0,0,0,.381,2.621,11.368,11.368,0,0,0-2.031.821c-.032,0-.032.032-.063.032A6.7,6.7,0,0,1,7.869,12.126ZM19.8,15.568a10.5,10.5,0,0,0-2.031-.821,11.882,11.882,0,0,0,.381-2.621h2.982A6.6,6.6,0,0,1,19.862,15.6C19.83,15.6,19.83,15.568,19.8,15.568Zm-5.3-1.263a11.6,11.6,0,0,0-2.348.221,9.981,9.981,0,0,1-.381-2.4h5.457a14.045,14.045,0,0,1-.381,2.4A14.087,14.087,0,0,0,14.5,14.305ZM7.9,11.211A6.6,6.6,0,0,1,9.17,7.737c.032,0,.032.032.064.032a10.5,10.5,0,0,0,2.031.821h0a10.061,10.061,0,0,0-.381,2.621Zm10.248,0a11.6,11.6,0,0,0-.381-2.621A14.32,14.32,0,0,0,19.8,7.768h0a.1.1,0,0,0,.064-.032,6.7,6.7,0,0,1,1.269,3.474Zm-6.377,0a9.726,9.726,0,0,1,.381-2.4,14.087,14.087,0,0,0,2.348.221,11.183,11.183,0,0,0,2.348-.221,9.984,9.984,0,0,1,.381,2.4ZM14.5,8.116a11.148,11.148,0,0,1-2.063-.189,9.145,9.145,0,0,1,1.65-2.81c0-.032.032-.063.064-.095h.7c0,.032.032.063.064.095a9.145,9.145,0,0,1,1.65,2.81,10.892,10.892,0,0,1-2.062.189Zm1.777-2.779c-.032-.032-.032-.063-.064-.095A6.583,6.583,0,0,1,19.259,7.01c-.032,0-.032.031-.064.031a8.01,8.01,0,0,1-1.713.663A11.88,11.88,0,0,0,16.277,5.337ZM11.518,7.705A8.013,8.013,0,0,1,9.8,7.042c-.032,0-.032-.031-.064-.031a6.587,6.587,0,0,1,3.046-1.768c-.032.032-.032.063-.064.095a11.883,11.883,0,0,0-1.206,2.368Z" fill="#fff"/>
</svg>
