<svg id="legal_blue" xmlns="http://www.w3.org/2000/svg" width="16.47" height="20" viewBox="0 0 16.47 20">
  <path id="Path_1175" data-name="Path 1175" d="M47.851-511.677a2.862,2.862,0,0,0-1.494.814,2.975,2.975,0,0,0-.751,1.217l-.106.313v15.218l.106.313a3.021,3.021,0,0,0,2.046,1.983l.313.09H59.505l.313-.09a2.811,2.811,0,0,0,1.275-.751,2.948,2.948,0,0,0,.771-1.232l.106-.313v-15.218l-.106-.313a3.065,3.065,0,0,0-2.026-1.983l-.293-.09-5.712-.008C48.9-511.732,48.086-511.728,47.851-511.677Zm8.572,5.575a.769.769,0,0,1,.442.638.778.778,0,0,1-.325.563l-.16.106H51.094l-.145-.09a.676.676,0,0,1-.156-1.033c.2-.231.11-.223,2.93-.227C55.464-506.145,56.348-506.133,56.423-506.1Zm1.807,3.771a.7.7,0,0,1,.36.763.8.8,0,0,1-.36.45c-.164.086-8.826.086-8.99,0a.8.8,0,0,1-.36-.45.681.681,0,0,1,.333-.747c.117-.07.282-.074,4.515-.074A42.649,42.649,0,0,1,58.23-502.331Zm.051,3.767a.656.656,0,0,1,.321.575.642.642,0,0,1-.278.556l-.141.11h-8.9l-.141-.11a.667.667,0,0,1-.086-1.025.8.8,0,0,1,.266-.172c.074-.023,1.835-.035,4.468-.031l4.342.008Z" transform="translate(-45.5 511.729)" fill="#0b45f3"/>
</svg>
