<svg xmlns="http://www.w3.org/2000/svg" width="31.101" height="35" viewBox="0 0 31.101 35">
  <path id="job_poster" d="M-900.867,34.411l-.055-.008a8.863,8.863,0,0,1-4.922-2.59,9.006,9.006,0,0,1-2.54-4.957A61.3,61.3,0,0,1-909,17.513a61.371,61.371,0,0,1,.614-9.342V8.156l-.016-.012a8.992,8.992,0,0,1,2.541-4.957A8.886,8.886,0,0,1-900.94.6l.055-.008A34.343,34.343,0,0,1-893.664,0c1.267,0,2.244.025,3.044.063.207.01.4.021.584.033q.067,4.321.1,8.641a3.555,3.555,0,0,0,1.036,2.474,3.555,3.555,0,0,0,2.47,1.046h0q4.185.049,8.371.159c.1,1.46.158,3.094.158,5.1a61.993,61.993,0,0,1-.615,9.343,8.987,8.987,0,0,1-2.54,4.957,8.89,8.89,0,0,1-4.922,2.59l-.055.008a34.351,34.351,0,0,1-7.221.589A38.177,38.177,0,0,1-900.867,34.411Zm-1.21-8.965a1.708,1.708,0,0,0,1.159.5q4.257.088,8.515.075a1.655,1.655,0,0,0,1.159-.488,1.655,1.655,0,0,0,.481-1.162,1.627,1.627,0,0,0-.474-1.161,1.628,1.628,0,0,0-1.159-.479h0q-4.281.007-8.563-.046a1.574,1.574,0,0,0-1.149.456,1.577,1.577,0,0,0-.468,1.144h0A1.708,1.708,0,0,0-902.078,25.446Zm16.158-6.474a1.63,1.63,0,0,0,1.411-.815,1.629,1.629,0,0,0,0-1.63,1.629,1.629,0,0,0-1.411-.815q-7.531-.033-15.061,0a1.646,1.646,0,0,0-1.159.476,1.648,1.648,0,0,0-.489,1.154h0a1.645,1.645,0,0,0,.487,1.154,1.644,1.644,0,0,0,1.159.475Q-893.451,19-885.92,18.972Zm-.532-8.63h0a1.608,1.608,0,0,1-1.1-.474,1.61,1.61,0,0,1-.468-1.107q-.051-4.093-.146-8.187a61.41,61.41,0,0,1,9.651,9.928h0l.042.046Q-882.465,10.41-886.451,10.342Z" transform="translate(909)" fill="#fff"/>
</svg>
