<svg xmlns="http://www.w3.org/2000/svg" width="22.439" height="28" viewBox="0 0 22.439 28">
  <path id="conatc_info" d="M196.951,78.578c.081-.632,1.634-1.783,3.32-2.457l1.472-.458c.776-.16,1.661-.04,1.8.365l2.224,6.684c.609,1.83-4.031,1.554-3.686,2.265a44.79,44.79,0,0,0,8.122,11.6c.551.567,1.878-3.887,3.389-2.689l5.52,4.375c.336.266.145,1.138-.27,1.813L217.9,101.3c-1.209,1.354-2.823,2.42-3.444,2.279-9.444-2.13-18.736-15.4-17.508-25Z" transform="translate(-196.842 -75.594)" fill="#fff"/>
</svg>
