<svg id="share" xmlns="http://www.w3.org/2000/svg" width="24.774" height="20" viewBox="0 0 24.774 20">
  <g id="Слой_1" data-name="Слой 1">
    <path id="Path_5" data-name="Path 5" d="M0,19.312A.779.779,0,0,0,.615,20a.779.779,0,0,0,.884-.539A13,13,0,0,1,5,14.969a13.254,13.254,0,0,1,8.312-3h3.16v2.741a.659.659,0,0,0,.21.464.644.644,0,0,0,.419.165.614.614,0,0,0,.419-.165L24.591,8.11a.629.629,0,0,0,0-.884L17.538.188a.629.629,0,0,0-1.063.434V3.363H15.2A15.4,15.4,0,0,0,3.221,9.353,16.144,16.144,0,0,0,0,19.312Z" transform="translate(0.002 -0.014)" fill="#313132"/>
  </g>
</svg>
