<svg xmlns="http://www.w3.org/2000/svg" width="56" height="56" viewBox="0 0 56 56">
  <g id="share" transform="translate(-1121 -1633)">
    <circle id="Ellipse_1441" data-name="Ellipse 1441" cx="28" cy="28" r="28" transform="translate(1121 1633)" fill="#435db4"/>
    <g id="noun-share-3772168" transform="translate(1137 1649)">
      <path id="Path_159" data-name="Path 159" d="M155.721,62.871a.5.5,0,0,0-.239-.432l-9.794-6.349a.514.514,0,0,0-.534-.015.524.524,0,0,0-.273.46l.009,2.141c-.031.009-.058.015-.089.028-.187.061-.371.126-.586.193a17.68,17.68,0,0,0-3.466,1.7,18.827,18.827,0,0,0-5.45,5.322,20.191,20.191,0,0,0-2.987,6.917,20.458,20.458,0,0,0-.3,7.263.524.524,0,0,0,1.037,0,17.38,17.38,0,0,1,2.009-6.04,14.187,14.187,0,0,1,3.69-4.3,11.276,11.276,0,0,1,4.521-2.1,10.139,10.139,0,0,1,1.656-.193l.006,1.859a.525.525,0,0,0,.81.433l9.742-6.447a.526.526,0,0,0,.236-.439Z" transform="translate(-131.821 -56.007)" fill="#fff"/>
    </g>
  </g>
</svg>
