<svg xmlns="http://www.w3.org/2000/svg" width="56" height="56" viewBox="0 0 56 56">
  <g id="view" transform="translate(-976 -1633)">
    <circle id="Ellipse_1442" data-name="Ellipse 1442" cx="28" cy="28" r="28" transform="translate(976 1633)" fill="#435db4"/>
    <path id="Icon_awesome-eye" data-name="Icon awesome-eye" d="M29.819,13.95A16.675,16.675,0,0,0,15,4.5,16.677,16.677,0,0,0,.181,13.95a1.758,1.758,0,0,0,0,1.555A16.675,16.675,0,0,0,15,24.955,16.677,16.677,0,0,0,29.819,15.5,1.758,1.758,0,0,0,29.819,13.95ZM15,22.4a7.587,7.587,0,0,1-7.5-7.67A7.587,7.587,0,0,1,15,7.057a7.587,7.587,0,0,1,7.5,7.67A7.583,7.583,0,0,1,15,22.4ZM15,9.614a4.862,4.862,0,0,0-1.318.2,2.592,2.592,0,0,1-.245,3.313,2.451,2.451,0,0,1-3.239.251,5.159,5.159,0,0,0,2.035,5.573,4.9,4.9,0,0,0,5.814-.188,5.171,5.171,0,0,0,1.687-5.694A5,5,0,0,0,15,9.614Z" transform="translate(989 1646.5)" fill="#fff"/>
  </g>
</svg>
