<svg xmlns="http://www.w3.org/2000/svg" width="34" height="34" viewBox="0 0 34 34">
  <g id="instagram" transform="translate(0.022 0.022)">
    <circle id="Oval" cx="17" cy="17" r="17" transform="translate(-0.022 -0.023)" fill="rgba(255,255,255,0.16)"/>
    <g id="noun-instagram-3350460" transform="translate(9.91 9.91)">
      <path id="Path_1286" data-name="Path 1286" d="M81.8,0H72.357A2.359,2.359,0,0,0,70,2.359V11.8a2.359,2.359,0,0,0,2.359,2.36H81.8a2.359,2.359,0,0,0,2.359-2.36V2.359A2.359,2.359,0,0,0,81.8,0Zm1.18,11.8h0a1.18,1.18,0,0,1-1.18,1.18H72.357a1.18,1.18,0,0,1-1.18-1.18V2.359a1.18,1.18,0,0,1,1.18-1.18H81.8a1.18,1.18,0,0,1,1.18,1.18Z" transform="translate(-69.998 0)" fill="#fff"/>
      <path id="Path_1287" data-name="Path 1287" d="M213.544,140a3.539,3.539,0,1,0,2.506,1.035A3.55,3.55,0,0,0,213.544,140Zm0,5.89a2.359,2.359,0,1,1,1.671-.69A2.366,2.366,0,0,1,213.544,145.89Z" transform="translate(-206.466 -136.456)" fill="#fff"/>
      <path id="Path_1288" data-name="Path 1288" d="M468.442,94.216a.886.886,0,1,1-.886-.886.886.886,0,0,1,.886.886" transform="translate(-456.644 -90.971)" fill="#fff"/>
    </g>
  </g>
</svg>
