<svg xmlns="http://www.w3.org/2000/svg" width="34" height="34" viewBox="0 0 34 34">
  <g id="twitter" transform="translate(0.057 0.022)">
    <circle id="Oval" cx="17" cy="17" r="17" transform="translate(-0.057 -0.023)" fill="rgba(255,255,255,0.16)"/>
    <path id="twitter-2" data-name="twitter" d="M17.419,1.677a7.153,7.153,0,0,1-2.053.563A3.589,3.589,0,0,0,16.939.263a7.151,7.151,0,0,1-2.27.867A3.575,3.575,0,0,0,8.579,4.388,10.15,10.15,0,0,1,1.214.655,3.579,3.579,0,0,0,2.32,5.426,3.567,3.567,0,0,1,.7,4.979,3.578,3.578,0,0,0,3.569,8.528a3.582,3.582,0,0,1-1.614.061A3.579,3.579,0,0,0,5.294,11.07,7.192,7.192,0,0,1,0,12.552a10.108,10.108,0,0,0,5.477,1.605A10.107,10.107,0,0,0,15.635,3.526a7.2,7.2,0,0,0,1.784-1.849Z" transform="translate(8.494 10.193)" fill="#fff"/>
  </g>
</svg>
