<svg xmlns="http://www.w3.org/2000/svg" width="19.919" fill="#fff" height="30" viewBox="0 0 19.919 30">
  <g id="female_active" transform="translate(-86.186 511.669)">
    <path id="Path_1139" data-name="Path 1139" d="M95.386-511.653a10.6,10.6,0,0,0-2.9.675A9.963,9.963,0,0,0,86.3-500.225a9.98,9.98,0,0,0,4.717,7.045,10.331,10.331,0,0,0,3.479,1.285l.452.07.018,1.684.012,1.684h-1.3c-1.144,0-1.338.018-1.543.111a1.135,1.135,0,0,0-.305,1.871c.3.311.6.364,1.953.364h1.191l.018,1.83c.018,1.813.018,1.836.158,2.059a1.543,1.543,0,0,0,.375.381,1.234,1.234,0,0,0,1.255,0,1.543,1.543,0,0,0,.375-.381c.141-.223.141-.246.158-2.059l.018-1.83h1.191c1.355,0,1.654-.053,1.953-.364a1.135,1.135,0,0,0-.305-1.871c-.205-.094-.4-.111-1.543-.111h-1.3l.012-1.684.018-1.684.452-.07a10.331,10.331,0,0,0,3.479-1.285,9.97,9.97,0,0,0,1.449-16.015,9.994,9.994,0,0,0-5-2.352A14.254,14.254,0,0,0,95.386-511.653Zm2.335,2.487a7.194,7.194,0,0,1,3.8,2.083,7.153,7.153,0,0,1,2.223,5.368,6.659,6.659,0,0,1-.329,2.288,7.589,7.589,0,0,1-6.265,5.25,6.319,6.319,0,0,1-1.995,0,7.59,7.59,0,0,1-6.265-5.25,6.66,6.66,0,0,1-.329-2.288,6.559,6.559,0,0,1,.375-2.446,7.147,7.147,0,0,1,1.848-2.921,7.373,7.373,0,0,1,4.435-2.2A9.549,9.549,0,0,1,97.72-509.166Z" transform="translate(0)" fill="#fff"/>
  </g>
</svg>
