<svg xmlns="http://www.w3.org/2000/svg" width="63.996" height="43.61" viewBox="0 0 63.996 43.61">
  <path id="Path_91900" data-name="Path 91900" d="M61.8,47.62l1.38-1.39A2.765,2.765,0,0,0,64,44.24a2.8,2.8,0,0,0-2.8-2.82h-.01a2.826,2.826,0,0,0-1.99.83l-1.39,1.38-2.2-2.2a17.585,17.585,0,0,0,3.51-10.65A17.89,17.89,0,0,0,41.23,12.89a17.387,17.387,0,0,0-6.01,1.04A18.365,18.365,0,0,0,5.75,28.56,18.054,18.054,0,0,0,9.3,39.41l-2.6,2.6.11-.77a2.835,2.835,0,0,0-2.42-3.16,2.805,2.805,0,0,0-3.16,2.41L.03,49.48a.915.915,0,0,0-.02.31v.16a2.217,2.217,0,0,0,.04.45.127.127,0,0,0,.01.06A2.734,2.734,0,0,0,.82,51.9a2.789,2.789,0,0,0,1.99.81,2.986,2.986,0,0,0,.38-.02l9-1.22a2.729,2.729,0,0,0,1.86-1.09,2.819,2.819,0,0,0-2.62-4.49l-.76.11,2.6-2.6a18.407,18.407,0,0,0,17.87,2.15,17.66,17.66,0,0,0,10.09,3.11,17.9,17.9,0,0,0,10.35-3.31l2.25,2.26L52.45,49a2.825,2.825,0,0,0,0,3.98,2.888,2.888,0,0,0,3.98,0l1.39-1.39,1.39,1.39A2.811,2.811,0,0,0,63.18,49ZM24.12,15.83a12.621,12.621,0,0,1,5.58,1.29c-.38.32-.75.66-1.12,1.02a17.906,17.906,0,0,0-2,22.93,11.87,11.87,0,0,1-2.46.25,12.712,12.712,0,0,1-8.95-3.67.1.1,0,0,0-.04-.05c-.01-.01-.02-.03-.03-.04s-.01-.01-.02-.01a12.73,12.73,0,0,1,9.04-21.72Zm8.45,6.29a11.638,11.638,0,0,1,1.62-1.37,12.748,12.748,0,0,1-1.05,16.83,12.16,12.16,0,0,1-1.27,1.11,12.282,12.282,0,0,1,.7-16.57Zm-.41,19.57c-.08-.07-.17-.13-.25-.21A2.524,2.524,0,0,0,32.16,41.69Zm1.1.83c-.21-.14-.42-.29-.62-.44C32.84,42.23,33.05,42.38,33.26,42.52Zm.88.55a.764.764,0,0,0,.16.11c-.32-.18-.64-.38-.95-.58C33.61,42.76,33.87,42.92,34.14,43.07Zm2.41-.96c.19-.17.39-.36.57-.54a18.4,18.4,0,0,0,2.47-22.91,11.346,11.346,0,0,1,1.65-.12,12.261,12.261,0,0,1,8.67,20.92A12.364,12.364,0,0,1,36.55,42.11Z" transform="translate(-0.004 -10.19)" fill="#fff"/>
</svg>
