<svg xmlns="http://www.w3.org/2000/svg" width="51.764" height="30" viewBox="0 0 51.764 30">
  <g id="double_dose_active" transform="translate(-196 -765)">
    <g id="Group_4666" data-name="Group 4666" transform="translate(196 765)">
      <path id="Union_38" data-name="Union 38" d="M2.6,29.926a1.1,1.1,0,0,1-.093-.076L.16,27.5a1.1,1.1,0,0,1-.076-.093h0c-.362-.482.549-1.267.968-.848l1.2,1.2-.568-.573,2.358-2.362-1.47-1.474a1,1,0,0,1,0-1.4h0l.359-.363,5.488,5.494-.363.359a1,1,0,0,1-1.4,0l-1.47-1.457L2.821,28.346l.629.612C3.8,29.313,3.3,30,2.839,30A.411.411,0,0,1,2.6,29.926Zm.785-8.794,5.1-5.107a.335.335,0,0,0,.086.2l1.547,1.544a.322.322,0,1,0,.456-.456L9.031,15.762a.33.33,0,0,0-.2-.086l.795-.8a.334.334,0,0,0,.086.2h0l1.547,1.544a.322.322,0,1,0,.456-.456l-1.543-1.544a.311.311,0,0,0-.2-.09l.8-.779a.329.329,0,0,0,.087.2l1.543,1.544a.323.323,0,1,0,.459-.456l-1.543-1.574a.333.333,0,0,0-.2-.09l.795-.782a.336.336,0,0,0,.09.2l1.543,1.547a.325.325,0,0,0,.459-.459l-1.543-1.544a.331.331,0,0,0-.2-.09l.795-.8a.3.3,0,0,0,.09.2L14.7,13.19a.325.325,0,0,0,.459-.459l-1.547-1.544a.3.3,0,0,0-.2-.09h0l.795-.8a.3.3,0,0,0,.09.2l1.537,1.544a.323.323,0,0,0,.459-.456l-1.533-1.544a.3.3,0,0,0-.2-.09l2.385-2.386a1.968,1.968,0,0,1,2.784,0l.552.552.881-.888A.918.918,0,0,1,22.4,7.164l.027-.043L29.381.163a.333.333,0,1,1,.456.456L22.882,7.57l-.043.027a.919.919,0,0,1-.066,1.224l-.888.892.5.5a2.057,2.057,0,0,1,0,2.9h0L8.875,26.622Z" transform="translate(0 0)" fill="#0b45f3"/>
      <path id="Union_39" data-name="Union 39" d="M2.6,29.926a1.1,1.1,0,0,1-.093-.076L.16,27.5a1.1,1.1,0,0,1-.076-.093h0c-.363-.482.549-1.267.968-.848l1.2,1.2-.569-.573L4.04,24.826,2.569,23.352a1,1,0,0,1,0-1.4h0l.359-.363,5.49,5.494-.363.359a1,1,0,0,1-1.4,0l-1.47-1.457L2.822,28.346l.629.612C3.806,29.313,3.3,30,2.84,30A.412.412,0,0,1,2.6,29.926Zm.785-8.794,5.1-5.107a.335.335,0,0,0,.086.2l1.547,1.544a.322.322,0,0,0,.456-.456L9.034,15.762a.33.33,0,0,0-.2-.086l.8-.8a.334.334,0,0,0,.086.2h0l1.547,1.544a.322.322,0,0,0,.456-.456l-1.544-1.544a.311.311,0,0,0-.2-.09l.8-.779a.329.329,0,0,0,.087.2l1.544,1.544a.323.323,0,1,0,.459-.456L11.33,13.463a.333.333,0,0,0-.2-.09l.8-.782a.336.336,0,0,0,.09.2l1.544,1.547a.325.325,0,0,0,.459-.459l-1.544-1.544a.332.332,0,0,0-.2-.09l.8-.8a.3.3,0,0,0,.09.2l1.547,1.547a.325.325,0,0,0,.459-.459l-1.547-1.544a.3.3,0,0,0-.2-.09h0l.795-.8a.3.3,0,0,0,.09.2l1.537,1.544a.324.324,0,0,0,.459-.456L14.77,10.042a.3.3,0,0,0-.2-.09L16.96,7.567a1.97,1.97,0,0,1,2.785,0l.552.552.882-.888A.918.918,0,0,1,22.4,7.164l.027-.043L29.391.163a.333.333,0,1,1,.456.456L22.889,7.57l-.043.027a.919.919,0,0,1-.066,1.224l-.888.892.5.5a2.057,2.057,0,0,1,0,2.9h0L8.877,26.622Z" transform="translate(21.755 0)" fill="#0b45f3"/>
    </g>
  </g>
</svg>
