<svg xmlns="http://www.w3.org/2000/svg" width="31.509" height="30" viewBox="0 0 31.509 30">
  <g id="not_vaccinated_active" transform="translate(-88 -837)">
    <path id="Subtraction_2" data-name="Subtraction 2" d="M2.887,30a.418.418,0,0,1-.241-.074.956.956,0,0,1-.1-.076L.163,27.5a1.087,1.087,0,0,1-.078-.093.446.446,0,0,1-.024-.489.877.877,0,0,1,.709-.478.413.413,0,0,1,.3.119l1.218,1.2-.578-.572,2.4-2.362L2.612,23.351a.986.986,0,0,1,0-1.4l.365-.363,5.582,5.494-.369.359a1.03,1.03,0,0,1-1.425,0L5.27,25.983l-2.4,2.362.64.613a.444.444,0,0,1,.074.513A.841.841,0,0,1,2.887,30Zm6.138-3.378h0L3.443,21.132l4.481-4.413,5.585,5.493L9.026,26.621ZM21.058,14.789h0L15.479,9.3l1.764-1.734a2.025,2.025,0,0,1,2.831,0l.562.552.9-.888a.937.937,0,0,1,.609-.267h.052a.946.946,0,0,1,.584.2l.027-.043L29.88.164A.344.344,0,0,1,30.128,0l.042,0a.344.344,0,0,1,.24.1.327.327,0,0,1,.1.277.336.336,0,0,1-.163.244L23.27,7.571l-.044.026a.908.908,0,0,1-.067,1.225l-.9.891.5.5a2.027,2.027,0,0,1,.608,1.451,2.053,2.053,0,0,1-.608,1.45l-1.7,1.672Z" transform="translate(89 837)" fill="#0b45f3"/>
    <path id="Union_43" data-name="Union 43" d="M2.6.074A1.1,1.1,0,0,0,2.509.15L.16,2.5a1.1,1.1,0,0,0-.076.093h0c-.363.482.549,1.267.968.848l1.2-1.2-.569.573L4.04,5.174,2.569,6.648a1,1,0,0,0,0,1.4h0l.359.363,5.49-5.494-.363-.359a1,1,0,0,0-1.4,0L5.184,4.016,2.822,1.654l.629-.612C3.806.687,3.3,0,2.84,0A.412.412,0,0,0,2.6.074Zm.785,8.794,5.1,5.107a.335.335,0,0,1,.086-.2l1.547-1.544a.322.322,0,0,1,.456.456L9.034,14.238a.33.33,0,0,1-.2.086l.8.8a.334.334,0,0,1,.086-.2h0l1.547-1.544a.322.322,0,0,1,.456.456l-1.544,1.544a.311.311,0,0,1-.2.09l.8.779a.329.329,0,0,1,.087-.2l1.544-1.544a.323.323,0,1,1,.459.456L11.33,16.537a.333.333,0,0,1-.2.09l.8.782a.336.336,0,0,1,.09-.2l1.544-1.547a.325.325,0,0,1,.459.459l-1.544,1.544a.332.332,0,0,1-.2.09l.8.8a.3.3,0,0,1,.09-.2l1.547-1.547a.325.325,0,0,1,.459.459l-1.547,1.544a.3.3,0,0,1-.2.09h0l.795.8a.3.3,0,0,1,.09-.2l1.537-1.544a.324.324,0,1,1,.459.456L14.77,19.957a.3.3,0,0,1-.2.09l2.385,2.386a1.97,1.97,0,0,0,2.785,0l.552-.552.882.888a.918.918,0,0,0,1.224.067l.027.043,6.961,6.958a.333.333,0,1,0,.456-.456L22.889,22.43l-.043-.027a.919.919,0,0,0-.066-1.224l-.888-.892.5-.5a2.057,2.057,0,0,0,0-2.9h0L8.877,3.378Z" transform="translate(118.009 867) rotate(180)" fill="#0b45f3"/>
  </g>
</svg>
