<svg xmlns="http://www.w3.org/2000/svg" width="69.006" height="30" viewBox="0 0 69.006 30">
  <path id="triple_dose_active" d="M21508.6,3354.928a.873.873,0,0,1-.086-.081l-2.352-2.349a.481.481,0,0,1-.074-.089c-.363-.486.547-1.271.965-.85l.633.631,2.355-2.364-1.473-1.474a1.013,1.013,0,0,1,0-1.4l.367-.365,5.488,5.491-.367.365a1,1,0,0,1-1.4,0l-1.473-1.458-2.367,2.365.633.607c.355.356-.152,1.045-.609,1.045A.458.458,0,0,1,21508.6,3354.928Zm-19.5,0a.9.9,0,0,1-.09-.081l-2.348-2.349a.666.666,0,0,1-.07-.089c-.363-.486.539-1.271.961-.85l.629.631,2.359-2.364-1.473-1.474a1,1,0,0,1,0-1.4l.363-.365,5.488,5.491-.363.365a1,1,0,0,1-1.4,0l-1.473-1.458-2.359,2.365.625.607c.355.356-.148,1.045-.609,1.045A.458.458,0,0,1,21489.1,3354.928Zm-19.492,0a.953.953,0,0,1-.1-.081l-2.348-2.349c-.023-.032-.047-.056-.074-.089-.363-.486.543-1.271.965-.85l.633.631,2.355-2.364-1.465-1.474a.984.984,0,0,1,0-1.4l.355-.365,5.492,5.491-.363.365a1.014,1.014,0,0,1-1.406,0l-1.465-1.458-2.363,2.365.629.607c.352.356-.152,1.045-.613,1.045A.433.433,0,0,1,21469.605,3354.928Zm39.777-8.8,5.105-5.11a.34.34,0,0,0,.086.194l1.547,1.547a.328.328,0,0,0,.453,0,.321.321,0,0,0,0-.454l-1.535-1.547a.386.386,0,0,0-.2-.089l.793-.793a.37.37,0,0,0,.09.194l1.547,1.547a.4.4,0,0,0,.227.1.358.358,0,0,0,.227-.1.324.324,0,0,0,0-.462l-1.539-1.539a.276.276,0,0,0-.2-.089l.8-.785a.312.312,0,0,0,.082.2l1.547,1.539a.322.322,0,0,0,.461,0,.345.345,0,0,0,0-.454l-1.547-1.571a.272.272,0,0,0-.2-.089l.8-.786a.263.263,0,0,0,.086.194l1.539,1.547a.327.327,0,0,0,.465,0,.337.337,0,0,0,0-.454l-1.547-1.547a.359.359,0,0,0-.2-.089l.793-.794a.3.3,0,0,0,.09.194l1.547,1.547a.326.326,0,1,0,.461-.461l-1.547-1.539a.274.274,0,0,0-.2-.089l.793-.8a.274.274,0,0,0,.094.2l1.535,1.539a.333.333,0,0,0,.457,0,.337.337,0,0,0,0-.454l-1.535-1.547a.338.338,0,0,0-.191-.089l2.379-2.381a1.973,1.973,0,0,1,1.395-.575,1.931,1.931,0,0,1,1.391.575l.551.55.887-.891a.92.92,0,0,1,.594-.267.939.939,0,0,1,.625.2l.031-.041,6.961-6.956a.322.322,0,0,1,.246-.162.351.351,0,0,1,.277.089.326.326,0,0,1,.09.283.345.345,0,0,1-.156.243l-6.961,6.949-.043.024a.925.925,0,0,1-.062,1.23l-.891.891.492.5a2.057,2.057,0,0,1,0,2.9l-13.508,13.508Zm-19.5,0,5.109-5.11a.275.275,0,0,0,.082.194l1.547,1.547a.321.321,0,0,0,.453-.454l-1.539-1.547a.35.35,0,0,0-.2-.089l.8-.793a.289.289,0,0,0,.082.194l1.547,1.547a.387.387,0,0,0,.223.1.4.4,0,0,0,.234-.1.331.331,0,0,0,0-.462l-1.547-1.539a.261.261,0,0,0-.191-.089l.8-.785a.342.342,0,0,0,.09.2l1.539,1.539a.322.322,0,0,0,.461,0,.329.329,0,0,0,0-.454l-1.547-1.571a.266.266,0,0,0-.2-.089l.8-.786a.343.343,0,0,0,.09.194l1.539,1.547a.327.327,0,0,0,.465,0,.337.337,0,0,0,0-.454l-1.543-1.547a.369.369,0,0,0-.2-.089l.8-.794a.321.321,0,0,0,.09.194l1.543,1.547a.327.327,0,0,0,.465-.461l-1.547-1.539a.274.274,0,0,0-.2-.089l.793-.8a.285.285,0,0,0,.09.2l1.539,1.539a.321.321,0,0,0,.453-.454l-1.531-1.547a.327.327,0,0,0-.2-.089l2.383-2.381a1.973,1.973,0,0,1,2.785,0l.551.55.883-.891a.939.939,0,0,1,.6-.267.978.978,0,0,1,.629.2l.027-.041,6.953-6.956a.342.342,0,0,1,.254-.162.347.347,0,0,1,.273.089.356.356,0,0,1,.1.283.363.363,0,0,1-.16.243l-6.961,6.949-.047.024a.907.907,0,0,1,.2.631.9.9,0,0,1-.266.6l-.895.891.5.5a2.048,2.048,0,0,1,0,2.9l-13.508,13.508Zm-19.492,0,5.1-5.11a.292.292,0,0,0,.082.194l1.547,1.547a.338.338,0,0,0,.461,0,.345.345,0,0,0,0-.454l-1.547-1.547a.351.351,0,0,0-.191-.089l.793-.793a.337.337,0,0,0,.086.194l1.547,1.547a.377.377,0,0,0,.227.1.421.421,0,0,0,.23-.1.347.347,0,0,0,0-.462l-1.547-1.539a.271.271,0,0,0-.2-.089l.8-.785a.363.363,0,0,0,.086.2l1.543,1.539a.322.322,0,0,0,.461,0,.329.329,0,0,0,0-.454l-1.547-1.571a.256.256,0,0,0-.2-.089l.793-.786a.37.37,0,0,0,.09.194l1.547,1.547a.321.321,0,0,0,.453-.454l-1.539-1.547a.358.358,0,0,0-.2-.089l.793-.794a.316.316,0,0,0,.086.194l1.547,1.547a.327.327,0,0,0,.465-.461l-1.547-1.539a.267.267,0,0,0-.2-.089l.793-.8a.342.342,0,0,0,.09.2l1.539,1.539a.338.338,0,0,0,.461,0,.345.345,0,0,0,0-.454l-1.539-1.547a.327.327,0,0,0-.2-.089l2.391-2.381a1.933,1.933,0,0,1,1.383-.575,1.971,1.971,0,0,1,1.4.575l.551.55.875-.891a.94.94,0,0,1,.605-.267.982.982,0,0,1,.625.2l.023-.041,6.957-6.956a.34.34,0,0,1,.523-.073.373.373,0,0,1,.1.283.368.368,0,0,1-.164.243l-6.957,6.949-.047.024a.886.886,0,0,1,.2.631.9.9,0,0,1-.266.6l-.891.891.5.5a2.048,2.048,0,0,1,0,2.9l-13.512,13.508Z" transform="translate(-21467.002 -3325.001)" fill="#0b45f3"/>
</svg>
