<svg width="20" height="20" viewBox="0 0 20 20" fill="none" xmlns="http://www.w3.org/2000/svg"><path d="M7.944 8.005h3.966m-1.983 3.983v-3.984" stroke="#fff" stroke-width="1.2000000000000002" stroke-linecap="round"/><path d="M5.962 4.685c0 0.734 -0.592 1.328 -1.322 1.328a1.325 1.325 0 0 1 -1.322 -1.328c0 -0.733 0.592 -1.328 1.322 -1.328 0.73 0 1.322 0.595 1.322 1.328Zm0 10.623c0 0.734 -0.592 1.328 -1.322 1.328a1.325 1.325 0 0 1 -1.322 -1.328c0 -0.734 0.592 -1.328 1.322 -1.328 0.73 0 1.322 0.594 1.322 1.328ZM16.534 4.685c0 0.734 -0.592 1.328 -1.322 1.328a1.325 1.325 0 0 1 -1.322 -1.328c0 -0.733 0.592 -1.328 1.322 -1.328 0.73 0 1.322 0.595 1.322 1.328Zm0 10.623c0 0.734 -0.592 1.328 -1.322 1.328a1.325 1.325 0 0 1 -1.322 -1.328c0 -0.734 0.592 -1.328 1.322 -1.328 0.73 0 1.322 0.594 1.322 1.328Z" stroke="#fff" stroke-width="1.2000000000000002"/><path d="M5.962 15.308h7.93m0 -10.623H5.962m9.251 9.295V6.013m-10.573 0v7.968" stroke="#fff" stroke-width="1.2000000000000002" stroke-linecap="round"/></svg>