<svg xmlns="http://www.w3.org/2000/svg" width="1027.152" height="976.001" viewBox="0 0 1027.152 976.001">
  <path id="australia_map_bg" d="M884.359,930.917c-8-3.427-11.429-1.14-13.708,3.427-1.14,4.567-1.14,4.567,0,13.708,1.14,8,4.567,14.855,10.281,21.71a22.021,22.021,0,0,1-3.427,10.281c-3.427,4.567-1.14,8,4.567,18.282s6.854,8,10.281,14.855,4.567,1.14,11.429,3.427c6.854,1.14,8-1.14,13.708-10.281,4.567-8,4.567-8,10.281-6.854,4.567,1.14,3.427,6.854,6.854,0s1.14-8,3.427-17.135c1.14-8,6.854-10.281,10.281-20.562s4.567-25.136-4.567-28.563-11.429,6.854-24,8c-11.428,1.14-18.282-3.427-27.423-8,1.156,1.132,1.156,1.132-7.986-2.3ZM509.608,652.139c-3.427,1.14-9.141,4.567-14.855,10.281-10.281,10.281-20.562,8-31.991,8s-27.423,1.14-38.844,10.281c-11.429,8-12.568,4.567-24,16s-4.567,24-17.135,27.423c-11.429,3.427-20.562,0-33.129,0-13.708,0-13.708-3.427-27.423,1.14s-18.282,1.14-25.136,6.854c-6.854,4.567,0,14.855-4.567,18.282s-11.429-3.427-21.71,6.854-14.855,13.708-28.563,14.855-20.562-1.14-29.7-4.567c-10.281-3.427-17.135-3.427-25.136-10.281s-10.281-17.135-4.567-20.562,14.855-3.427,13.708-17.135-6.854-11.429-3.427-24c3.427-11.429,3.427-13.708-3.427-25.136s-4.567-8-13.708-24-8-14.855-10.281-28.563c-1.14-13.708,1.14-6.854-8-20.561-10.281-13.708-6.854-8-13.708-20.562-6.854-11.429-1.14-18.282-10.281-25.136-8-6.854-17.135-17.135-21.71-21.71s-18.282-17.135-14.855-20.562,20.562,25.136,24,21.71-11.429-17.135-8-21.71,14.855,21.71,20.562,14.855c4.567-6.854-33.129-43.418-31.991-52.561,1.14-8,8-25.136,8-33.129s-6.854-13.708-4.567-21.71c1.14-8,0-17.135,8-18.282s-1.14,21.71,4.567,18.282c6.854-3.427,4.567-14.855,11.429-21.71,4.559-4.591,19.406-14.871,31.975-26.293,11.429-11.429,18.282-13.708,29.7-13.708s4.567-1.14,13.708-10.281,13.708-1.14,18.282-1.14,6.854-13.708,14.855-14.855,24-4.567,35.416-10.281c11.429-4.567,28.563-27.423,31.991-35.416s11.429-17.135,11.429-20.562-13.708-14.855-8-24c4.567-8,14.855-25.136,21.71-24s1.14,17.135,8,18.282,17.135,8,17.135,0,1.14-10.281-4.567-14.855c-6.854-4.567-11.429-8-11.429-11.429s13.708-3.427,24,0,18.282,0,14.855-6.854-13.708-17.135-10.281-24,13.708-1.14,20.561-6.854c6.854-4.567-8-6.854,0-13.708s10.281-8,18.282-8,3.427-10.281,10.281-13.708,13.708,6.854,17.135,0,3.427-6.854,8-6.854,11.429,6.854,20.562,13.708c8,6.854,1.14,13.708,13.708,20.562,6.854,1.14,8-3.427,19.422-2.287l16,3.427c6.854-3.427,4.567-11.429,0-18.282s1.14-6.854,4.567-13.708-3.427-13.708,6.854-17.135-3.427-6.854,0-13.708,14.855-4.567,24-14.855c8-10.281,14.855-11.429,25.136-8s13.708,3.427,21.71-1.14,3.427-10.281,0-14.855S573.59,55.732,579.3,48.87s17.135-4.567,20.561,0S610.139,52.3,614.713,60.3s17.135-1.14,29.7,6.854,3.427,6.854,18.282,3.427,3.427,3.427,11.429,4.567,17.135-8,27.423-17.135c10.281-8,13.708-18.282,20.562-14.855,5.722,3.435-6.846,13.716-17.127,21.718s-18.282,3.427-10.281,8,20.562-8,24,1.14c3.427,10.281,0,17.135-6.854,27.423s-20.562-1.14-20.562,6.854,4.567,8,1.14,18.282,0,6.854-4.567,14.855-11.429,14.855-1.14,21.71,4.567,11.429,13.708,14.855c8,3.427,6.854-1.14,14.855,3.427s0,3.427,8,8,6.854,3.427,13.708,8c0,0,6.854,0,10.281,4.567l14.855,11.429c8,1.14,14.855,1.14,17.135,10.281,1.14,8,6.854,11.429,13.708,14.855s21.71,4.567,28.563-3.427,13.708-13.708,14.855-20.562,1.14-10.281,4.567-17.135,4.567-6.854,4.567-13.708,4.567-14.855,4.567-21.71,3.427-11.429,0-17.135c-3.427-4.567,1.14-14.855,1.14-20.562,0-4.567,0-14.855,3.427-18.282s6.854-6.854,4.567-11.429c-1.14-4.567-3.427-13.708,0-18.282S866.078,71.76,869.5,64.9c5.714-4.6-1.14-11.452,4.574-16.019,4.567-4.567,6.854-8,11.429-8s4.567,4.567,6.854,11.429c1.14,6.854-1.14,11.429,0,17.135,1.14,4.567,1.14,6.854,6.854,10.281,4.567,3.427,3.427,4.567,1.14,8-1.14,3.427-4.567,3.427-1.14,6.854s4.567-1.14,6.854,4.567c1.14,6.854-1.14,6.854,0,10.281s3.427-1.14,3.427,6.854-1.14,11.429,0,20.562c1.14,8,0,4.567,3.427,11.429s1.14,8,8,8,6.854-6.854,13.708-3.427,3.427,0,8,6.854,6.854,4.567,10.281,11.429,1.14,4.567,0,10.281c-1.14,4.567-1.14,4.567,0,11.429s3.427,3.427,3.427,11.429-6.854,6.854-3.427,11.429,6.854,4.567,10.281,13.708c3.427,8,4.567,8,4.567,17.135s3.427,6.854,0,13.708-1.14,8,1.14,11.429c3.427,3.427,4.567,6.854,3.427,11.429s0,14.855,4.567,18.282,8,1.14,13.708,6.854c4.567,4.567,4.567-1.14,10.281,3.427,4.567,4.567,4.567,6.854,10.281,10.281,4.567,3.427,4.567,4.567,11.429,10.281,6.854,4.567,10.281,4.567,10.281,13.708,0,8-1.14,11.429,4.567,18.282,6.854,6.854,10.281,6.854,10.281,14.855s-3.427,8,0,14.855-3.427,8,3.427,10.281c6.854,1.14,1.14-4.567,8-4.567s1.14,4.567,4.567,8,0,1.14,6.854,1.14,6.854-3.427,6.854,4.567-1.14,10.281-3.427,17.135c-1.14,6.854-4.567,3.427,0,6.854s8,0,10.281,6.854c1.14,6.854,1.14,10.281,6.854,14.855,4.567,4.567,4.567,8,10.281,14.855s6.854,6.854,10.281,13.708,0,6.854,4.567,11.429,1.14,3.427,3.427,10.281c1.14,6.854,3.427,1.14,3.427,8s0,4.567-1.14,11.429,3.427,3.427,1.14,11.429c-1.14,8,1.14,8,0,17.135-1.14,8-1.14,0-1.14,10.281l1.14,11.429s0,17.135-4.567,28.563-4.567,6.854-6.854,17.135c-1.14,10.281-4.567,14.855-11.429,25.136s1.14,10.281-3.427,20.562-1.14,8-8,18.282a211.574,211.574,0,0,0-11.429,18.282c-4.567,8-10.281,4.567-14.855,10.281l-13.708,13.708c-4.567,4.567-8,8-11.429,17.135s-1.14,11.429-4.567,21.71S1026,776.671,1018,786.952s-3.427,13.708-6.854,18.282-4.567,11.429-6.854,21.71l-3.427,14.855s-10.281,4.567-17.135,6.854c-6.854,1.14-10.281,1.14-18.282,3.427-8,1.14-14.855,0-21.71,3.427s-8,6.854-14.855,11.429-6.854-3.427-11.429,1.14a67.636,67.636,0,0,0,3.427,8c1.14,4.567-6.854,4.567-10.281,3.427s-6.854-6.854-11.429-13.708-10.281-8-17.135-10.281c-6.854-1.14,1.14-4.567,3.427-8,1.14-3.427,1.14-8-4.567-6.854-6.854,1.14-1.14,3.427-6.854,10.281-4.567,6.854-6.854,3.427-11.429,6.854s-6.854,8-13.708,8-6.854-8-13.708-8-8-4.567-14.855-8-8-1.14-14.855,0l-17.135-11.429c-6.854-4.567-4.567-4.567-11.429-10.281-6.854-4.567-11.429-11.429-8-21.71s0-13.708-4.567-21.71-4.567-11.429-6.854-18.282,3.427-11.429-4.567-8-3.427,3.427-13.708,3.427-4.567,0-1.14-6.854,10.281-4.567,6.854-11.429-6.854-10.281-10.281-18.282-6.854,1.14-6.854,10.281c0,8-6.854,11.429-11.429,14.855s-10.281,4.567-13.708,1.14,10.281-10.281,13.708-11.429,3.427-3.427,4.567-10.281a148.494,148.494,0,0,1,3.427-17.135c1.14-8,4.567-11.429,4.567-14.855s1.14-21.71-1.14-21.71c-3.427,0-4.567,10.281-6.854,14.855-1.14,4.567-4.567,10.281-14.855,14.855s-10.281,6.854-14.855,14.855-4.567,6.854-6.854,13.708c-1.14,6.854-10.281,4.567-13.708,0s1.14-6.854,1.14-13.708-4.567-11.429-10.281-14.855c-4.567-3.427-6.854-1.14-8-10.281s-4.567-4.567-11.429-10.281c-6.854-4.567-4.567-11.429-8-20.562-3.427-8-14.855-1.14-18.282-6.854-3.427-4.567-17.135-4.567-24-8s-9.141-5.714-19.422-11.429c-10.281-4.567-17.135,6.854-28.563,6.854Z" transform="translate(-96.617 -40.877)" fill="#082059"/>
</svg>
