<svg xmlns="http://www.w3.org/2000/svg" width="106.681" height="95.796" viewBox="0 0 106.681 95.796">
  <path id="Path_2385" data-name="Path 2385" d="M11.437,102.492,22.4,100.036a4.818,4.818,0,0,1-3.382,4.323A142.811,142.811,0,0,1,3.849,108.69c-2.942.62-4.487-1.434-3.6-4.289,1.481-4.764,3.208-9.454,4.837-14.172.1-.276.171-.648.379-.778.666-.418,1.391-.744,2.093-1.105.3.606.906,1.253.832,1.811-.245,1.883-.729,3.735-1.126,5.6a6.466,6.466,0,0,0-.042,3.4c1.125-1.02,2.3-1.994,3.367-3.068a68.288,68.288,0,0,0,11.6-81.7c-1.9-3.472-4.225-6.708-6.332-10.067-.734-1.17-1.407-2.379-2.108-3.57L14.4,0c.834.307,1.9.388,2.461.963a59.249,59.249,0,0,1,5.492,6.3C38.856,30.026,39.5,61.644,23.77,86.1c-3,4.664-6.859,8.778-10.351,13.123-.718.895-1.567,1.683-2.357,2.521Z" transform="translate(106.681 68.47) rotate(129)" fill="#fff"/>
</svg>
