<svg id="Component_78_7" data-name="Component 78 – 7" xmlns="http://www.w3.org/2000/svg" width="271.605" height="60.002" viewBox="0 0 271.605 60.002">
  <path id="Union_51" data-name="Union 51" d="M20194.928,4403a1.042,1.042,0,0,1-.922-.49,1.053,1.053,0,0,1-.113-1.03l4.84-13.485-10-24.461a.789.789,0,0,1-.051-.327.96.96,0,0,1,.27-.708.9.9,0,0,1,.654-.27h3.369a.9.9,0,0,1,.867.6l7.83,17.885,7.775-17.885a.945.945,0,0,1,.922-.6h3.32a.85.85,0,0,1,.76.433.92.92,0,0,1,.111.872l-15.5,38.762a.836.836,0,0,1-.434.489,1.025,1.025,0,0,1-.652.214Zm-48-1.03a1.116,1.116,0,0,1-1.086-1.086q-.056-1.851-.164-8.1t-.107-11.634c0-2.432.031-4.838.107-7.234a13.076,13.076,0,0,1,1.953-6.414,13.419,13.419,0,0,1,4.844-4.619,13.005,13.005,0,0,1,6.576-1.738,12.657,12.657,0,0,1,6.689,1.845,13.212,13.212,0,0,1,4.889,4.895,12.913,12.913,0,0,1,1.795,6.684,13.223,13.223,0,0,1-1.795,6.745,13.705,13.705,0,0,1-4.889,4.89,12.945,12.945,0,0,1-6.689,1.794,10.681,10.681,0,0,1-4.4-1.03,8.388,8.388,0,0,1-3.371-2.5.1.1,0,0,0-.162-.051.094.094,0,0,0-.107.107l-.107,16.366a1.116,1.116,0,0,1-1.092,1.086Zm8.1-34.307a8.232,8.232,0,0,0-2.879,2.937,7.519,7.519,0,0,0-1.092,3.967,7.783,7.783,0,0,0,1.092,4.022,8.382,8.382,0,0,0,2.879,2.886,7.818,7.818,0,0,0,4.023,1.086,7.513,7.513,0,0,0,3.967-1.086,8.252,8.252,0,0,0,2.936-2.886,7.925,7.925,0,0,0-2.936-10.926,7.509,7.509,0,0,0-3.967-1.086A7.813,7.813,0,0,0,20155.023,4367.664Zm-40.377,34.307a1.116,1.116,0,0,1-1.092-1.086q-.047-1.851-.158-8.1t-.111-11.634c0-2.432.035-4.838.111-7.234a13.076,13.076,0,0,1,1.953-6.414,13.4,13.4,0,0,1,4.838-4.619,13.026,13.026,0,0,1,6.582-1.738,12.622,12.622,0,0,1,6.684,1.845,13.256,13.256,0,0,1,4.895,4.895,12.951,12.951,0,0,1,1.795,6.684,13.262,13.262,0,0,1-1.795,6.745,13.753,13.753,0,0,1-4.895,4.89,12.909,12.909,0,0,1-6.684,1.794,10.66,10.66,0,0,1-4.4-1.03,8.347,8.347,0,0,1-3.371-2.5.1.1,0,0,0-.162-.051.1.1,0,0,0-.113.107l-.107,16.366a1.037,1.037,0,0,1-.326.759,1.053,1.053,0,0,1-.76.327Zm8.1-34.307a8.318,8.318,0,0,0-2.881,2.937,7.514,7.514,0,0,0-1.086,3.967,7.777,7.777,0,0,0,1.086,4.022,8.472,8.472,0,0,0,2.881,2.886,7.812,7.812,0,0,0,4.027,1.086,7.513,7.513,0,0,0,3.967-1.086,8.252,8.252,0,0,0,2.936-2.886,7.925,7.925,0,0,0-2.936-10.926,7.509,7.509,0,0,0-3.967-1.086A7.807,7.807,0,0,0,20122.742,4367.664Zm-64.928,27.781c-.6-.428-14.814-10.533-14.814-23.911a15.634,15.634,0,0,1,31.268,0,22.387,22.387,0,0,1-2.789,10.436l-5.8-5.394a8.7,8.7,0,1,0-2.244,2.172l6.4,5.96a44.493,44.493,0,0,1-10.391,10.737,1.467,1.467,0,0,1-1.637,0ZM20304,4388a1.1,1.1,0,0,1-.7-.27.9.9,0,0,1-.271-.653l-.162-8.754V4366.9l-5.385-.163a1.345,1.345,0,0,1-.652-.27.889.889,0,0,1-.27-.653v-3.263a1.016,1.016,0,0,1,.213-.653,1.167,1.167,0,0,1,.709-.326l5.385-.163v-4.619l.162-8.7a.906.906,0,0,1,.271-.653.96.96,0,0,1,.7-.27h3.156a.9.9,0,0,1,.652.27.912.912,0,0,1,.27.653l.219,8.7v4.619l5.385.163a1.116,1.116,0,0,1,.652.326.9.9,0,0,1,.27.653v3.207a.9.9,0,0,1-.27.653,1.145,1.145,0,0,1-.652.326l-5.385.163v11.415l-.219,8.754a.921.921,0,0,1-.922.923Zm-26.854,0a1.107,1.107,0,0,1-.816-.326,1.12,1.12,0,0,1-.326-.816l.271-18.267a16.975,16.975,0,0,0-.215-2.932c-.111-.836-.184-1.341-.219-1.524a7.114,7.114,0,0,1-.215-1.086v-.163a.751.751,0,0,1,.215-.545.908.908,0,0,1,.652-.27l3.482-.6a1.235,1.235,0,0,1,.922.647,1.26,1.26,0,0,1,.107.438c.035.107.057.163.057.163a8.835,8.835,0,0,1,3.916-.872,9.576,9.576,0,0,1,3.752.759,9.741,9.741,0,0,1,3.207,2.233,1.252,1.252,0,0,1,.27.7.987.987,0,0,1-.326.708l-2.014,1.851a1.032,1.032,0,0,1-1.193-.056,5.6,5.6,0,0,0-3.207-1.142,4.3,4.3,0,0,0-3.156,1.305,4.6,4.6,0,0,0-1.248,3.314l-.057,15.331a1.115,1.115,0,0,1-1.143,1.142Zm-11.863,0a.983.983,0,0,1-.709-.326,1.246,1.246,0,0,1-.377-.76l-.057-2.391a.172.172,0,0,0-.111-.163c-.031-.036-.088-.021-.158.056a8.138,8.138,0,0,1-3.375,2.554,10.65,10.65,0,0,1-4.4,1.03,13.378,13.378,0,0,1-13.43-13.429,12.913,12.913,0,0,1,1.795-6.684,13.185,13.185,0,0,1,4.895-4.895,12.894,12.894,0,0,1,6.74-1.845,12.715,12.715,0,0,1,6.521,1.738,13.019,13.019,0,0,1,4.787,4.619,12.776,12.776,0,0,1,2.008,6.414c.107,1.994.164,3.865.164,5.6q0,2.715-.107,4.782c-.072,1.376-.127,2.249-.164,2.61a1.022,1.022,0,0,1-.326.76,1.1,1.1,0,0,1-.814.326Zm-13.209-20.332a8.285,8.285,0,0,0-2.887,2.937,7.514,7.514,0,0,0-1.086,3.967,7.777,7.777,0,0,0,1.086,4.022,8.438,8.438,0,0,0,2.887,2.886,7.781,7.781,0,0,0,4.021,1.086,7.513,7.513,0,0,0,3.967-1.086,8.174,8.174,0,0,0,3.967-6.959,7.483,7.483,0,0,0-1.086-3.972,7.764,7.764,0,0,0-2.932-2.88,7.539,7.539,0,0,0-3.973-1.086A7.682,7.682,0,0,0,20252.076,4367.664ZM20236.551,4388a1.858,1.858,0,0,1-1.523-.76l-7.613-10.11-2.553,3.095-.164,6.852a.921.921,0,0,1-.922.923h-3.207a.924.924,0,0,1-.924-.923l-.168-8.754V4367.5l.168-19.409a.924.924,0,0,1,.924-.923h3.207a.9.9,0,0,1,.652.27.912.912,0,0,1,.27.653l.164,19.409v4.3l8.482-9.952a1.7,1.7,0,0,1,1.412-.7h3.748a.813.813,0,0,1,.652.326.874.874,0,0,1,.275.647.939.939,0,0,1-.219.6l-8.045,9.9a.366.366,0,0,0-.057.54l9.625,13.322a.806.806,0,0,1,.215.6.822.822,0,0,1-.326.653.894.894,0,0,1-.648.27Zm-57.6,0a.921.921,0,0,1-.922-.923l-.164-8.754v-21.525l.164-8.7a.912.912,0,0,1,.27-.653.9.9,0,0,1,.652-.27h3.207a.931.931,0,0,1,.928.923l.158,8.7v21.525l-.158,8.754a.931.931,0,0,1-.928.923Zm-76.393,0a.99.99,0,0,1-.709-.326,1.226,1.226,0,0,1-.377-.76l-.057-2.391a.172.172,0,0,0-.111-.163c-.031-.036-.086-.021-.158.056a8.164,8.164,0,0,1-3.375,2.554,10.65,10.65,0,0,1-4.4,1.03,13.364,13.364,0,0,1-13.428-13.429,12.946,12.946,0,0,1,1.789-6.684,13.256,13.256,0,0,1,4.895-4.895,12.907,12.907,0,0,1,6.744-1.845,12.715,12.715,0,0,1,6.521,1.738,12.989,12.989,0,0,1,4.787,4.619,12.757,12.757,0,0,1,2.008,6.414c.107,1.994.164,3.865.164,5.6q0,2.715-.107,4.782c-.076,1.376-.127,2.249-.162,2.61a1.029,1.029,0,0,1-.326.76,1.107,1.107,0,0,1-.816.326Zm-13.215-20.332a8.285,8.285,0,0,0-2.881,2.937,7.532,7.532,0,0,0-1.086,3.967,7.8,7.8,0,0,0,1.086,4.022,8.438,8.438,0,0,0,2.881,2.886,7.817,7.817,0,0,0,4.027,1.086,7.518,7.518,0,0,0,3.967-1.086,7.689,7.689,0,0,0,2.881-2.937,7.8,7.8,0,0,0,1.086-4.022,7.519,7.519,0,0,0-1.086-3.972,7.738,7.738,0,0,0-2.937-2.88,7.5,7.5,0,0,0-3.965-1.086A7.725,7.725,0,0,0,20089.348,4367.664Zm-36.824,4.6a.738.738,0,0,1-.291-.1.8.8,0,0,1-.225-.209.658.658,0,0,1-.133-.275.771.771,0,0,1-.01-.306,7.047,7.047,0,0,1,4.125-5.542.754.754,0,0,1,.6.015.776.776,0,0,1,.418.433.8.8,0,0,1-.02.6.762.762,0,0,1-.434.418,5.514,5.514,0,0,0-3.141,4.308.8.8,0,0,1-.266.479.741.741,0,0,1-.5.193A.453.453,0,0,1,20052.523,4372.268Zm.938-24.069a5.167,5.167,0,1,1,5.17,5.2A5.186,5.186,0,0,1,20053.461,4348.2Z" transform="translate(-20043 -4342.998)"/>
</svg>
