<svg xmlns="http://www.w3.org/2000/svg" width="17" height="17" viewBox="0 0 17 17">
  <g id="day_shift" transform="translate(-2 -2)">
    <circle id="Ellipse_1437" data-name="Ellipse 1437" cx="4" cy="4" r="4" transform="translate(6.286 6.286)" fill="#fff"/>
    <path id="Path_6631" data-name="Path 6631" d="M10.5,4.615a.654.654,0,0,1-.654-.654V2.654a.654.654,0,0,1,1.308,0V3.962A.654.654,0,0,1,10.5,4.615ZM10.5,19a.654.654,0,0,1-.654-.654V17.038a.654.654,0,0,1,1.308,0v1.308A.654.654,0,0,1,10.5,19ZM3.962,11.154H2.654a.654.654,0,0,1,0-1.308H3.962a.654.654,0,0,1,0,1.308Zm14.385,0H17.038a.654.654,0,0,1,0-1.308h1.308a.654.654,0,1,1,0,1.308Zm-13.4,5.551a.657.657,0,0,1-.458-1.118l.922-.928a.657.657,0,0,1,.928.928l-.928.922a.654.654,0,0,1-.464.2ZM15.123,6.531a.654.654,0,0,1-.464-1.118l.928-.922a.654.654,0,0,1,.922.922l-.922.928a.654.654,0,0,1-.464.19Zm.928,10.174a.654.654,0,0,1-.464-.2l-.928-.922a.657.657,0,1,1,.928-.928l.922.928a.657.657,0,0,1-.458,1.118ZM5.877,6.531a.654.654,0,0,1-.464-.19l-.922-.928a.654.654,0,0,1,.922-.922l.928.922a.654.654,0,0,1-.464,1.118Z" fill="#fff"/>
  </g>
</svg>
