<svg width="19" height="26" viewBox="0 0 19 26" fill="none" xmlns="http://www.w3.org/2000/svg">
<path d="M16.8625 16.1236L16.2194 16.5094L16.8625 16.1236ZM4.98224 12.327L4.59637 11.6839L4.98224 12.327ZM3.65838 13.1213L4.04426 13.7645L4.04426 13.7645L3.65838 13.1213ZM2.06976 10.4736L1.68389 9.83051L2.06976 10.4736ZM3.39361 9.67932L3.77948 10.3224C3.95005 10.2201 4.07298 10.0542 4.12122 9.86122C4.16946 9.66825 4.13907 9.46401 4.03673 9.29345L3.39361 9.67932ZM2.33453 7.91418L1.69141 8.30005L2.33453 7.91418ZM10.4542 5.44299L9.81105 5.82886C10.0242 6.18404 10.4849 6.29922 10.84 6.08611L10.4542 5.44299ZM11.778 4.64868L12.1639 5.2918L11.778 4.64868ZM9.80195 20.3599L9.15884 20.7458L9.80195 20.3599ZM14.9742 23.9791L15.6173 23.5932L15.6173 23.5932L14.9742 23.9791ZM14.5168 23.2167L13.8737 23.6026L13.8737 23.6026L14.5168 23.2167ZM17.6219 22.3905L18.2651 22.0046L17.6219 22.3905ZM17.1645 21.6281L16.5214 22.0139L17.1645 21.6281ZM12.7563 22.0574L12.6559 22.8006L12.6559 22.8006L12.7563 22.0574ZM12.2824 21.9933L12.3828 21.2501L12.3828 21.2501L12.2824 21.9933ZM16.97 19.5292L17.6731 19.7903L17.6731 19.7903L16.97 19.5292ZM17.1365 19.0809L16.4335 18.8197L16.4335 18.8197L17.1365 19.0809ZM16.9915 21.3265L17.6639 20.9943L17.6639 20.9943L16.9915 21.3265ZM16.8554 19.8574L16.1334 19.6544L16.1334 19.6544L16.8554 19.8574ZM10.5295 21.396L10.028 21.9537L10.0281 21.9537L10.5295 21.396ZM11.0431 21.7343L10.7289 22.4152L10.7289 22.4152L11.0431 21.7343ZM14.3321 22.9221L13.7225 23.3591L13.7225 23.3591L14.3321 22.9221ZM13.0999 22.1107L13.2605 21.3781L13.2605 21.3781L13.0999 22.1107ZM17.4344 17.2531L18.1624 17.0731L18.1624 17.0731L17.4344 17.2531ZM17.4911 17.8655L18.2399 17.9086L18.2399 17.9086L17.4911 17.8655ZM11.3412 12.0161C10.9861 12.2292 10.8709 12.6899 11.084 13.0451C11.2971 13.4003 11.7578 13.5155 12.113 13.3024L11.3412 12.0161ZM15.8158 14.3791C16.171 14.166 16.2862 13.7053 16.0731 13.3501C15.86 12.9949 15.3993 12.8798 15.0441 13.0929L15.8158 14.3791ZM12.7965 14.4415C12.4413 14.6546 12.3261 15.1153 12.5392 15.4705C12.7523 15.8256 13.213 15.9408 13.5682 15.7277L12.7965 14.4415ZM4.59637 11.6839L3.27251 12.4782L4.04426 13.7645L5.36811 12.9701L4.59637 11.6839ZM12.9808 6.65326L11.6569 7.44758L12.4287 8.73381L13.7525 7.9395L12.9808 6.65326ZM2.45563 11.1168L3.77948 10.3224L3.00774 9.0362L1.68389 9.83051L2.45563 11.1168ZM4.03673 9.29345L2.97765 7.52831L1.69141 8.30005L2.75049 10.0652L4.03673 9.29345ZM8.75196 4.06372L9.81105 5.82886L11.0973 5.05711L10.0382 3.29198L8.75196 4.06372ZM5.36811 12.9701L12.4287 8.73381L11.6569 7.44758L4.59637 11.6839L5.36811 12.9701ZM10.4451 19.974L5.62536 11.9412L4.33912 12.7129L9.15884 20.7458L10.4451 19.974ZM15.6173 23.5932L15.1599 22.8308L13.8737 23.6026L14.3311 24.365L15.6173 23.5932ZM18.2651 22.0046L17.8076 21.2422L16.5214 22.0139L16.9788 22.7764L18.2651 22.0046ZM12.8568 21.3141L12.3828 21.2501L12.1819 22.7366L12.6559 22.8006L12.8568 21.3141ZM17.6731 19.7903L17.8396 19.342L16.4335 18.8197L16.2669 19.268L17.6731 19.7903ZM17.8076 21.2422C17.7107 21.0807 17.6844 21.0357 17.6639 20.9943L16.3191 21.6587C16.373 21.7678 16.4372 21.8737 16.5214 22.0139L17.8076 21.2422ZM16.2669 19.268C16.21 19.4213 16.1663 19.5372 16.1334 19.6544L17.5774 20.0604C17.5899 20.016 17.6075 19.9669 17.6731 19.7903L16.2669 19.268ZM17.6639 20.9943C17.5207 20.7044 17.4898 20.3717 17.5774 20.0604L16.1334 19.6544C15.9455 20.3225 16.0117 21.0365 16.3191 21.6587L17.6639 20.9943ZM17.4783 25.1518C18.5646 24.5 18.9168 23.0909 18.2651 22.0046L16.9788 22.7764C17.2044 23.1523 17.0825 23.64 16.7065 23.8655L17.4783 25.1518ZM9.15884 20.7458C9.46672 21.2589 9.69482 21.6541 10.028 21.9537L11.0309 20.8383C10.9044 20.7246 10.8008 20.5668 10.4451 19.974L9.15884 20.7458ZM12.3828 21.2501C11.6977 21.1575 11.5118 21.1246 11.3574 21.0533L10.7289 22.4152C11.1357 22.603 11.5889 22.6564 12.1819 22.7366L12.3828 21.2501ZM10.0281 21.9537C10.2372 22.1418 10.4735 22.2974 10.7289 22.4152L11.3574 21.0533C11.2384 20.9984 11.1284 20.9259 11.0309 20.8383L10.0281 21.9537ZM4.13251 2.90886C5.72705 1.95214 7.79524 2.46919 8.75196 4.06372L10.0382 3.29198C8.65526 0.987073 5.66567 0.239676 3.36077 1.62262L4.13251 2.90886ZM2.97765 7.52831C2.02093 5.93378 2.53798 3.86558 4.13251 2.90886L3.36077 1.62262C1.05587 3.00556 0.308468 5.99515 1.69141 8.30005L2.97765 7.52831ZM13.2531 5.56409C13.4786 5.94005 13.3567 6.42769 12.9808 6.65326L13.7525 7.9395C14.8388 7.2877 15.1911 5.87868 14.5393 4.79234L13.2531 5.56409ZM15.1599 22.8308C15.0757 22.6906 15.0125 22.5841 14.9416 22.4852L13.7225 23.3591C13.7494 23.3966 13.7767 23.441 13.8737 23.6026L15.1599 22.8308ZM12.6559 22.8006C12.8425 22.8258 12.8941 22.8334 12.9393 22.8433L13.2605 21.3781C13.1416 21.352 13.0188 21.336 12.8567 21.3141L12.6559 22.8006ZM14.9416 22.4852C14.5373 21.9211 13.9384 21.5267 13.2605 21.3781L12.9393 22.8433C13.2551 22.9125 13.5341 23.0963 13.7225 23.3591L14.9416 22.4852ZM2.18334 12.2059C1.95776 11.83 2.07967 11.3423 2.45563 11.1168L1.68389 9.83051C0.597558 10.4823 0.2453 11.8913 0.897098 12.9777L2.18334 12.2059ZM16.7065 23.8655C16.3306 24.0911 15.8429 23.9692 15.6173 23.5932L14.3311 24.365C14.9829 25.4513 16.3919 25.8036 17.4783 25.1518L16.7065 23.8655ZM3.27251 12.4782C2.89655 12.7038 2.40891 12.5819 2.18334 12.2059L0.897098 12.9777C1.5489 14.064 2.95793 14.4163 4.04426 13.7645L3.27251 12.4782ZM14.5393 4.79234C13.8875 3.70602 12.4785 3.35376 11.3922 4.00556L12.1639 5.2918C12.5399 5.06622 13.0275 5.18813 13.2531 5.56409L14.5393 4.79234ZM16.2194 16.5094C16.5751 17.1023 16.6655 17.268 16.7063 17.4331L18.1624 17.0731C18.0549 16.6381 17.8135 16.2508 17.5056 15.7377L16.2194 16.5094ZM17.8396 19.342C18.048 18.781 18.2141 18.356 18.2399 17.9086L16.7423 17.8223C16.7326 17.9921 16.6742 18.1716 16.4335 18.8197L17.8396 19.342ZM16.7063 17.4331C16.7377 17.5603 16.7499 17.6915 16.7423 17.8223L18.2399 17.9086C18.256 17.6278 18.23 17.3462 18.1624 17.0731L16.7063 17.4331ZM10.84 6.08611L12.1639 5.2918L11.3922 4.00556L10.0683 4.79987L10.84 6.08611ZM17.5056 15.7377L14.6179 10.9248L13.3316 11.6965L16.2194 16.5094L17.5056 15.7377ZM14.6179 10.9248L12.6859 7.70482L11.3997 8.47657L13.3316 11.6965L14.6179 10.9248ZM13.5889 10.6675L11.3412 12.0161L12.113 13.3024L14.3606 11.9538L13.5889 10.6675ZM15.0441 13.0929L12.7965 14.4415L13.5682 15.7277L15.8158 14.3791L15.0441 13.0929Z" fill="white"/>
</svg>
