<svg xmlns="http://www.w3.org/2000/svg" xmlns:xlink="http://www.w3.org/1999/xlink" width="1920" height="1020.661" viewBox="0 0 1920 1020.661">
  <defs>
    <filter id="Path_3190" x="-15" y="-12" width="1950" height="1050.661" filterUnits="userSpaceOnUse">
      <feOffset dy="3" input="SourceAlpha"/>
      <feGaussianBlur stdDeviation="5" result="blur"/>
      <feFlood flood-opacity="0.102"/>
      <feComposite operator="in" in2="blur"/>
      <feComposite in="SourceGraphic"/>
    </filter>
    <clipPath id="clip-path">
      <g transform="matrix(1, 0, 0, 1, 0, 0)" filter="url(#Path_3190)">
        <path id="Path_3190-2" data-name="Path 3190" d="M0,0H1920V1020.661H0Z" transform="translate(0 13010.34)" fill="#00113b"/>
      </g>
    </clipPath>
  </defs>
  <g id="footer_bg" transform="translate(0 -13010.339)" clip-path="url(#clip-path)">
    <g id="Group_2233" data-name="Group 2233" transform="translate(-1704.775 12934.536)" opacity="0.08">
      <path id="Path_1418" data-name="Path 1418" d="M4279.231-273.045C3132.1-904.3,2792.886,1055.163,1691.71,615.516" transform="translate(13.548)" fill="none" stroke="#fff" stroke-width="1"/>
      <path id="Path_1419" data-name="Path 1419" d="M4276.99-256.971C3169.63-908.285,2774.1,1014.149,1691.38,566.37" transform="translate(12.903 12.657)" fill="none" stroke="#fff" stroke-width="1"/>
      <path id="Path_1420" data-name="Path 1420" d="M4274.746-240.569C3207.161-911.985,2755.315,973.463,1691.05,517.52" transform="translate(12.258 25.008)" fill="none" stroke="#fff" stroke-width="1"/>
      <path id="Path_1421" data-name="Path 1421" d="M4272.5-223.822C3244.691-915.4,2736.528,933.12,1690.72,468.983" transform="translate(11.614 37.038)" fill="none" stroke="#fff" stroke-width="1"/>
      <path id="Path_1422" data-name="Path 1422" d="M4270.263-206.718c-988.04-711.8-1552.519,1099.851-2579.874,627.487" transform="translate(10.967 48.736)" fill="none" stroke="#fff" stroke-width="1"/>
      <path id="Path_1423" data-name="Path 1423" d="M4268.02-191.325C3319.757-914.9,2698.96,839.322,1690.059,364.271" transform="translate(10.322 60.088)" fill="none" stroke="#fff" stroke-width="1"/>
      <path id="Path_1424" data-name="Path 1424" d="M4265.776-173.733C3357.288-916.9,2680.171,799.76,1689.729,316.849" transform="translate(9.677 71.084)" fill="none" stroke="#fff" stroke-width="1"/>
      <path id="Path_1425" data-name="Path 1425" d="M4263.534-155.769C3394.819-918.519,2661.386,760.57,1689.4,269.8" transform="translate(9.033 81.707)" fill="none" stroke="#fff" stroke-width="1"/>
      <path id="Path_1426" data-name="Path 1426" d="M4261.29-137.418C3432.351-919.752,2642.6,721.764,1689.069,223.133" transform="translate(8.388 91.943)" fill="none" stroke="#fff" stroke-width="1"/>
      <path id="Path_1427" data-name="Path 1427" d="M4259.047-118.662C3469.888-920.584,2623.813,683.365,1688.738,176.871" transform="translate(7.741 101.775)" fill="none" stroke="#fff" stroke-width="1"/>
      <path id="Path_1428" data-name="Path 1428" d="M4256.806-99.489c-749.385-821.5-1651.782,744.876-2568.4,230.522" transform="translate(7.097 114.472)" fill="none" stroke="#fff" stroke-width="1"/>
      <path id="Path_1429" data-name="Path 1429" d="M4254.563-79.873c-709.606-841.089-1668.325,687.722-2566.484,165.5" transform="translate(6.452 123.412)" fill="none" stroke="#fff" stroke-width="1"/>
      <path id="Path_1430" data-name="Path 1430" d="M4252.318-59.8C3582.492-920.475,2567.447,570.77,1687.748,40.692" transform="translate(5.807 131.892)" fill="none" stroke="#fff" stroke-width="1"/>
      <path id="Path_1431" data-name="Path 1431" d="M4250.08-39.243C3620.029-919.5,2548.663,534.171,1687.417-3.77" transform="translate(5.16 139.89)" fill="none" stroke="#fff" stroke-width="1"/>
      <path id="Path_1432" data-name="Path 1432" d="M4247.835-18.184C3657.566-918.028,2529.872,498.079,1687.087-47.722" transform="translate(4.516 147.381)" fill="none" stroke="#fff" stroke-width="1"/>
      <path id="Path_1433" data-name="Path 1433" d="M4245.591,3.408C3695.1-916.024,2511.085,462.516,1686.757-91.148" transform="translate(3.871 154.34)" fill="none" stroke="#fff" stroke-width="1"/>
      <path id="Path_1434" data-name="Path 1434" d="M4243.346,25.557C3732.64-913.459,2492.3,427.508,1686.427-134.013" transform="translate(3.226 160.81)" fill="none" stroke="#fff" stroke-width="1"/>
      <path id="Path_1435" data-name="Path 1435" d="M4241.105,48.3c-470.927-958.6-1767.6,344.8-2555.009-224.587" transform="translate(2.581 166.866)" fill="none" stroke="#fff" stroke-width="1"/>
      <path id="Path_1436" data-name="Path 1436" d="M4238.864,71.66c-431.145-978.19-1784.144,287.643-2553.1-289.6" transform="translate(1.935 172.302)" fill="none" stroke="#fff" stroke-width="1"/>
      <path id="Path_1437" data-name="Path 1437" d="M4236.62,95.683C3845.258-902.088,2435.928,326.175,1685.436-258.933" transform="translate(1.29 177.079)" fill="none" stroke="#fff" stroke-width="1"/>
      <path id="Path_1438" data-name="Path 1438" d="M4234.378,120.417C3882.8-896.941,2417.139,293.755,1685.106-299.214" transform="translate(0.645 181.154)" fill="none" stroke="#fff" stroke-width="1"/>
      <path id="Path_1439" data-name="Path 1439" d="M4232.134,166.714C3920.339-870.228,2398.348,282.9,1684.776-317.934" transform="translate(0 163.385)" fill="none" stroke="#fff" stroke-width="1"/>
    </g>
  </g>
</svg>
