<svg xmlns="http://www.w3.org/2000/svg" width="28.235" height="30" viewBox="0 0 28.235 30">
  <path id="moon" d="M10.991,29.487A14.748,14.748,0,0,1,2,22.49v-.016A15.108,15.108,0,0,1,.505,11.09,14.907,14.907,0,0,1,7.4,1.966H7.42a15.076,15.076,0,0,1,3-1.363h0A14.466,14.466,0,0,1,13.547,0,.824.824,0,0,1,14.1.137a.86.86,0,0,1,.213,1.18,13.491,13.491,0,0,0-.606,14.309A13.062,13.062,0,0,0,19,20.762a12.891,12.891,0,0,0,7.209,1.479.907.907,0,0,1,.541.133.876.876,0,0,1,.229,1.18A13.8,13.8,0,0,1,24.9,26.03a16.069,16.069,0,0,1-2.687,1.945,14.521,14.521,0,0,1-11.223,1.512Zm9.06-12.448a.4.4,0,0,1-.278-.282l-.639-2.094-2.064-.648a.425.425,0,0,1-.278-.532.471.471,0,0,1,.278-.282l2.064-.632.639-2.111a.423.423,0,0,1,.524-.282.409.409,0,0,1,.262.282l.639,2.111,2.065.632a.425.425,0,0,1,.278.532.432.432,0,0,1-.278.282l-2.065.648-.639,2.094a.421.421,0,0,1-.4.3A.378.378,0,0,1,20.051,17.039ZM24.36,8.563a.493.493,0,0,1-.311-.316l-.688-2.31-2.294-.715a.464.464,0,0,1,0-.881l2.294-.715.688-2.31A.475.475,0,0,1,24.623,1a.493.493,0,0,1,.311.316l.7,2.31,2.277.715a.448.448,0,0,1,.295.582.416.416,0,0,1-.295.3l-2.277.715-.7,2.31a.47.47,0,0,1-.447.333A.484.484,0,0,1,24.36,8.563Z" transform="translate(0 0)" fill="#fff"/>
</svg>
