<svg xmlns="http://www.w3.org/2000/svg" width="216" height="89.25" viewBox="0 0 216 89.25">
  <g id="Group_22830" data-name="Group 22830" transform="translate(-17 -52.75)">
    <path id="Path_28139" data-name="Path 28139" d="M63,134h91a7.056,7.056,0,0,0,1.5-.161A7.056,7.056,0,0,0,157,134h52a7,7,0,0,0,0-14h-6a7,7,0,0,1,0-14h19a7,7,0,0,0,0-14H200a7,7,0,0,0,0-14H136a7,7,0,0,0,0-14H79a7,7,0,0,0,0,14H39a7,7,0,0,0,0,14H64a7,7,0,0,1,0,14H24a7,7,0,0,0,0,14H63a7,7,0,0,0,0,14Zm163,0a7,7,0,1,0-7-7A7,7,0,0,0,226,134Z" fill="#f3f7ff" fill-rule="evenodd"/>
    <path id="Path_28140" data-name="Path 28140" d="M113.119,112.307a12,12,0,1,0,23.762,0H166V139a3,3,0,0,1-3,3H87a3,3,0,0,1-3-3V112.307Z" fill="#fff" fill-rule="evenodd"/>
    <path id="Path_28141" data-name="Path 28141" d="M138,112a13,13,0,0,1-26,0q0-.35.018-.693H84l9.56-28.268A3,3,0,0,1,96.4,81h57.2a3,3,0,0,1,2.842,2.039L166,111.307H137.982Q138,111.651,138,112Z" fill="#fff" fill-rule="evenodd"/>
    <path id="Path_28142" data-name="Path 28142" d="M136.1,112.955a11.1,11.1,0,0,1-22.2,0c0-.18.006-1.359.016-1.536H93l8.161-19.843A2.555,2.555,0,0,1,103.587,90h42.826a2.555,2.555,0,0,1,2.426,1.576L157,111.419H136.082C136.092,111.6,136.1,112.775,136.1,112.955Z" fill="#e8f0fe" fill-rule="evenodd"/>
    <path id="Path_28143" data-name="Path 28143" d="M85.25,111.512V138A1.75,1.75,0,0,0,87,139.75h76a1.751,1.751,0,0,0,1.75-1.75V111.512l-9.495-28.073A1.749,1.749,0,0,0,153.6,82.25H96.4a1.75,1.75,0,0,0-1.658,1.189Z" fill="none" stroke="#1f64e7" stroke-width="2.5" fill-rule="evenodd"/>
    <path id="Path_28144" data-name="Path 28144" d="M98,111h12.745c1.876,0,1.876,1.319,1.876,2a12.279,12.279,0,0,0,24.552,0c0-.681,0-2,1.877-2H164m-73.426,0h0Z" fill="none" stroke="#1f64e7" stroke-linecap="round" stroke-linejoin="round" stroke-width="2.5"/>
    <path id="Path_28145" data-name="Path 28145" d="M150.1,58.3,139,70.756M124.1,54v0ZM98,58.3l11.1,12.453Z" fill="none" stroke="#75a4fe" stroke-linecap="round" stroke-linejoin="round" stroke-width="2.5"/>
  </g>
</svg>
