<?xml version="1.0" encoding="UTF-8"?> <svg xmlns="http://www.w3.org/2000/svg" xmlns:xlink="http://www.w3.org/1999/xlink" width="316px" height="49px" viewBox="0 0 316 49"><!-- Generator: Sketch 52.6 (67491) - http://www.bohemiancoding.com/sketch --><title>SD_Logo</title><desc>Created with Sketch.</desc><g id="_STYLEGUIDE" stroke="none" stroke-width="1" fill="none" fill-rule="evenodd"><g id="SD_Styleguide" transform="translate(-118.000000, -296.000000)"><g id="SD_Logo" transform="translate(117.000000, 286.000000)"><path d="M13.923,48.663 C9.231,48.663 5.304,47.643 1.887,45.297 L4.641,39.483 C7.344,41.472 10.506,42.39 14.076,42.39 C17.187,42.39 18.819,41.778 18.819,40.554 C18.819,39.126 16.626,39.228 12.903,38.718 C6.63,37.902 2.55,36.117 2.55,30.915 C2.55,25.662 6.834,22.347 14.127,22.347 C20.502,22.347 23.97,25.152 25.704,28.518 L19.482,31.221 C18.768,29.232 16.677,28.467 14.331,28.467 C11.577,28.467 10.098,29.334 10.098,30.405 C10.098,31.527 11.781,31.782 15.249,32.241 C21.93,33.159 26.52,34.383 26.52,40.044 C26.52,45.858 21.624,48.663 13.923,48.663 Z M47.95,29.589 L39.739,29.589 L39.739,38.973 C39.739,41.166 41.167,42.033 43.258,42.033 C44.839,42.033 46.165,41.676 47.644,40.962 L47.644,47.439 C45.808,48.255 44.023,48.663 41.575,48.663 C36.22,48.663 32.242,45.96 32.242,39.993 L32.242,29.589 L28.06,29.589 L28.06,23.01 L32.242,23.01 L32.242,15.36 L39.739,15.36 L39.739,23.01 L47.95,23.01 L47.95,29.589 Z M70.502,23.01 L77.999,23.01 L77.999,48 L70.502,48 L70.502,44.889 C68.615,47.184 65.861,48.663 62.291,48.663 C55.355,48.663 50.357,43.206 50.357,35.505 C50.357,27.753 55.355,22.347 62.291,22.347 C65.861,22.347 68.615,23.775 70.502,26.121 L70.502,23.01 Z M70.502,38.922 L70.502,32.088 C68.972,29.844 66.932,28.875 64.535,28.875 C60.506,28.875 58.058,31.527 58.058,35.505 C58.058,39.432 60.506,42.135 64.535,42.135 C66.932,42.135 68.972,41.115 70.502,38.922 Z M91.422,27.498 C93.513,23.928 96.777,22.347 100.704,22.398 L100.704,30.15 C96.726,29.844 92.901,31.833 91.422,34.842 L91.422,48 L83.925,48 L83.925,23.01 L91.422,23.01 L91.422,27.498 Z M122.44,29.589 L114.229,29.589 L114.229,38.973 C114.229,41.166 115.657,42.033 117.748,42.033 C119.329,42.033 120.655,41.676 122.134,40.962 L122.134,47.439 C120.298,48.255 118.513,48.663 116.065,48.663 C110.71,48.663 106.732,45.96 106.732,39.993 L106.732,29.589 L102.55,29.589 L102.55,23.01 L106.732,23.01 L106.732,15.36 L114.229,15.36 L114.229,23.01 L122.44,23.01 L122.44,29.589 Z M143.717,23.01 L151.214,23.01 L151.214,48 L143.717,48 L143.717,44.889 C141.677,47.337 139.127,48.663 135.608,48.663 C129.641,48.663 126.224,44.787 126.224,38.82 L126.224,23.01 L133.721,23.01 L133.721,38.157 C133.721,40.452 135.353,41.982 137.852,41.982 C140.045,41.982 141.983,40.911 143.717,38.718 L143.717,23.01 Z M172.797,22.347 C179.733,22.347 184.731,27.753 184.731,35.505 C184.731,43.206 179.733,48.663 172.797,48.663 C169.227,48.663 166.473,47.184 164.586,44.889 L164.586,58.2 L157.089,58.2 L157.089,23.01 L164.586,23.01 L164.586,26.121 C166.473,23.775 169.227,22.347 172.797,22.347 Z M170.553,42.135 C174.582,42.135 177.03,39.432 177.03,35.505 C177.03,31.527 174.582,28.875 170.553,28.875 C168.156,28.875 166.116,29.844 164.586,32.088 L164.586,38.922 C166.116,41.115 168.156,42.135 170.553,42.135 Z" id="startup" fill="#FFFFFF"></path><path d="M209.134,12.3 L216.631,12.3 L216.631,48 L209.134,48 L209.134,44.889 C207.247,47.184 204.493,48.663 200.923,48.663 C193.987,48.663 188.938,43.206 188.938,35.505 C188.938,27.753 193.987,22.347 200.923,22.347 C204.493,22.347 207.247,23.775 209.134,26.121 L209.134,12.3 Z M209.134,38.922 L209.134,32.088 C207.553,29.844 205.513,28.875 203.116,28.875 C199.138,28.875 196.639,31.527 196.639,35.505 C196.639,39.432 199.138,42.135 203.116,42.135 C205.513,42.135 207.553,41.115 209.134,38.922 Z M241.376,23.01 L248.873,23.01 L248.873,48 L241.376,48 L241.376,44.889 C239.489,47.184 236.735,48.663 233.165,48.663 C226.229,48.663 221.231,43.206 221.231,35.505 C221.231,27.753 226.229,22.347 233.165,22.347 C236.735,22.347 239.489,23.775 241.376,26.121 L241.376,23.01 Z M241.376,38.922 L241.376,32.088 C239.846,29.844 237.806,28.875 235.409,28.875 C231.38,28.875 228.932,31.527 228.932,35.505 C228.932,39.432 231.38,42.135 235.409,42.135 C237.806,42.135 239.846,41.115 241.376,38.922 Z M258.522,19.644 C255.972,19.644 253.983,17.706 253.983,15.207 C253.983,12.759 255.972,10.821 258.522,10.821 C261.123,10.821 263.112,12.759 263.112,15.207 C263.112,17.706 261.123,19.644 258.522,19.644 Z M262.296,23.01 L262.296,48 L254.799,48 L254.799,23.01 L262.296,23.01 Z M268.171,48 L268.171,11.28 L275.668,11.28 L275.668,48 L268.171,48 Z M300.056,23.01 L308.165,23.01 L308.165,23.316 L293.681,58.2 L285.572,58.2 L285.572,57.894 L290.417,47.643 L279.095,23.316 L279.095,23.01 L287.204,23.01 L294.038,39.228 L300.056,23.01 Z M311.643,48.663 C308.787,48.663 306.645,46.521 306.645,43.818 C306.645,41.115 308.787,38.973 311.643,38.973 C314.448,38.973 316.59,41.115 316.59,43.818 C316.59,46.521 314.448,48.663 311.643,48.663 Z" id="daily." fill="#F68558"></path></g></g></g></svg> 