<svg xmlns="http://www.w3.org/2000/svg" xmlns:xlink="http://www.w3.org/1999/xlink" width="44" height="44" viewBox="0 0 44 44">
  <defs>
    <linearGradient id="linear-gradient" y1="0.5" x2="1" y2="0.5" gradientUnits="objectBoundingBox">
      <stop offset="0" stop-color="#c8c8c8"/>
      <stop offset="1" stop-color="#cdcdcd"/>
    </linearGradient>
    <linearGradient id="linear-gradient-2" y1="0.5" x2="1" y2="0.5" gradientUnits="objectBoundingBox">
      <stop offset="0" stop-color="#d9d9d9"/>
      <stop offset="1" stop-color="#e2e2e2"/>
    </linearGradient>
  </defs>
  <g id="gmail" transform="translate(0 0)">
    <circle id="Ellipse_311" data-name="Ellipse 311" cx="22" cy="22" r="22" transform="translate(0 0)" fill="#fff"/>
    <g id="gmail-icon-2" transform="translate(7.663 10.862)">
      <path id="Path_28100" data-name="Path 28100" d="M34.967,35.573H9.8a1.8,1.8,0,0,1-1.8-1.8V15.8A1.8,1.8,0,0,1,9.8,14H34.967a1.8,1.8,0,0,1,1.8,1.8V33.775a1.8,1.8,0,0,1-1.8,1.8Z" transform="translate(-8 -14)" fill="#eaeaea"/>
      <path id="Path_28101" data-name="Path 28101" d="M11.6,35.573H9.8a1.8,1.8,0,0,1-1.8-1.8V15.8a1.8,1.8,0,0,1,3.6,0Z" transform="translate(-8 -14)" fill="#d54c3f"/>
      <path id="Path_28102" data-name="Path 28102" d="M50,35.573h1.8a1.8,1.8,0,0,0,1.8-1.8V15.8a1.8,1.8,0,0,0-3.6,0Z" transform="translate(-24.831 -14)" fill="#b63524"/>
      <path id="Path_28103" data-name="Path 28103" d="M36,17.272a1.8,1.8,0,1,0-2.059-2.948L22.383,22.735h0L10.827,14.323a1.8,1.8,0,1,0-2.059,2.948l-.048-.035,13.662,9.947m13.662-9.947L22.382,27.183" transform="translate(-7.999 -13.999)" fill="#de5145"/>
      <path id="Path_28104" data-name="Path 28104" d="M36.169,14a1.791,1.791,0,0,0-1.03.324L23.586,22.735h0L12.03,14.324A1.791,1.791,0,0,0,11,14Z" transform="translate(-9.202 -14)" fill="#efefef"/>
      <path id="Path_28105" data-name="Path 28105" d="M11.974,22.181l-3.03-3v0a1.8,1.8,0,0,0,.2.165L9.1,19.312l2.876,2.094v.8" transform="translate(-8.377 -16.075)" fill="#c64132"/>
      <path id="Path_28106" data-name="Path 28106" d="M22.79,32.769,14,39.606V24.063l8.788,8.7" transform="translate(-10.404 -18.032)" fill="#e3e3e3"/>
      <path id="Path_28107" data-name="Path 28107" d="M22.79,32.3l2-1.553L14,22.9v.7l8.788,8.7Z" transform="translate(-10.404 -17.565)" fill="url(#linear-gradient)"/>
      <path id="Path_28108" data-name="Path 28108" d="M35.494,39.138H41.45V22.9L30.664,30.748l-2,1.55Z" transform="translate(-16.281 -17.564)" fill="url(#linear-gradient-2)"/>
    </g>
  </g>
</svg>
