<svg xmlns="http://www.w3.org/2000/svg" xmlns:xlink="http://www.w3.org/1999/xlink" width="44" height="44" viewBox="0 0 44 44">
  <defs>
    <radialGradient id="radial-gradient" cx="0.065" cy="0.978" r="1.27" gradientUnits="objectBoundingBox">
      <stop offset="0.09" stop-color="#fa8f21"/>
      <stop offset="0.78" stop-color="#d82d7e"/>
    </radialGradient>
    <radialGradient id="radial-gradient-2" cx="0.693" cy="0.946" r="1.117" gradientUnits="objectBoundingBox">
      <stop offset="0.64" stop-color="#8c3aaa" stop-opacity="0"/>
      <stop offset="1" stop-color="#8c3aaa"/>
    </radialGradient>
  </defs>
  <g id="instagram" transform="translate(-0.083 0)">
    <g id="Group_21748" data-name="Group 21748" transform="translate(0 0)">
      <circle id="Ellipse_314" data-name="Ellipse 314" cx="22" cy="22" r="22" transform="translate(0.083 0)" fill="url(#radial-gradient)"/>
      <circle id="Ellipse_315" data-name="Ellipse 315" cx="22" cy="22" r="22" transform="translate(0.083 0)" fill="url(#radial-gradient-2)"/>
    </g>
    <path id="Path_28112" data-name="Path 28112" d="M443.438,450.9a3.794,3.794,0,1,1,3.793,3.794,3.794,3.794,0,0,1-3.793-3.794m-2.051,0a5.844,5.844,0,1,0,5.844-5.844,5.844,5.844,0,0,0-5.844,5.844m10.554-6.076a1.366,1.366,0,1,0,1.366-1.365h0a1.366,1.366,0,0,0-1.366,1.365m-9.308,15.341a6.289,6.289,0,0,1-2.114-.392,3.768,3.768,0,0,1-2.161-2.16,6.285,6.285,0,0,1-.392-2.114c-.055-1.2-.066-1.56-.066-4.6s.012-3.4.066-4.6a6.332,6.332,0,0,1,.392-2.114,3.767,3.767,0,0,1,2.161-2.161,6.286,6.286,0,0,1,2.114-.392c1.2-.055,1.56-.066,4.6-.066s3.4.012,4.6.066a6.33,6.33,0,0,1,2.114.392,3.766,3.766,0,0,1,2.16,2.16,6.284,6.284,0,0,1,.392,2.114c.055,1.2.066,1.56.066,4.6s-.011,3.4-.066,4.6a6.314,6.314,0,0,1-.392,2.114,3.769,3.769,0,0,1-2.16,2.16,6.284,6.284,0,0,1-2.114.392c-1.2.055-1.56.066-4.6.066s-3.4-.011-4.6-.066m-.094-20.577a8.346,8.346,0,0,0-2.763.529,5.819,5.819,0,0,0-3.329,3.329,8.349,8.349,0,0,0-.529,2.763c-.056,1.214-.069,1.6-.069,4.692s.013,3.479.069,4.692a8.348,8.348,0,0,0,.529,2.763,5.819,5.819,0,0,0,3.329,3.329,8.355,8.355,0,0,0,2.763.529c1.214.055,1.6.069,4.692.069s3.479-.013,4.692-.069a8.348,8.348,0,0,0,2.763-.529,5.819,5.819,0,0,0,3.329-3.329,8.324,8.324,0,0,0,.529-2.763c.055-1.214.068-1.6.068-4.692s-.013-3.479-.068-4.692a8.346,8.346,0,0,0-.529-2.763,5.821,5.821,0,0,0-3.328-3.329,8.336,8.336,0,0,0-2.763-.529c-1.214-.055-1.6-.069-4.692-.069s-3.479.013-4.693.069" transform="translate(-425.102 -429.126)" fill="#fff"/>
  </g>
</svg>
