<svg xmlns="http://www.w3.org/2000/svg" width="26.374" height="30" viewBox="0 0 26.374 30">
  <g id="non_binary_inactive" transform="translate(-31 512)">
    <path id="Path_1138" data-name="Path 1138" d="M31.457-511.877a.841.841,0,0,0-.34.346c-.111.223-.117.34-.117,3.048s.006,2.825.117,3.048a.925.925,0,0,0,.762.469.925.925,0,0,0,.762-.469c.111-.217.117-.34.117-1.887v-1.659l1.272,1.272,1.278,1.278-.744.744a8.511,8.511,0,0,0-.832.938.87.87,0,0,0,1.155,1.155,8.517,8.517,0,0,0,.938-.832l.744-.744.51.51.5.5-.3.346a9.511,9.511,0,0,0-1.67,2.9A9.087,9.087,0,0,0,39.1-490.426a9.188,9.188,0,0,0,3.71,1.465l.5.07v2.21H41.9c-1.3,0-1.43.012-1.641.117a.925.925,0,0,0-.469.762.925.925,0,0,0,.469.762c.211.105.34.117,1.641.117h1.407v1.114c0,1.3.053,1.489.469,1.7a.821.821,0,0,0,.821,0c.416-.211.469-.4.469-1.7v-1.114h1.407c1.3,0,1.43-.012,1.641-.117a.925.925,0,0,0,.469-.762.925.925,0,0,0-.469-.762c-.211-.106-.34-.117-1.641-.117H45.066V-488.9l.34-.035a9.243,9.243,0,0,0,4.741-2.163,9.068,9.068,0,0,0,3.036-8.029,9.835,9.835,0,0,0-.5-2.034A10.078,10.078,0,0,0,51-503.93l-.217-.217,2.421-2.421,2.415-2.415v1.659c0,1.547.006,1.67.117,1.887a.925.925,0,0,0,.762.469.925.925,0,0,0,.762-.469c.111-.223.117-.34.117-3.048s-.006-2.825-.117-3.048a.786.786,0,0,0-.352-.352c-.223-.111-.34-.117-3.048-.117s-2.825.006-3.048.117a.925.925,0,0,0-.469.762.925.925,0,0,0,.469.762c.217.111.34.117,1.887.117h1.659l-2.45,2.45-2.456,2.456-.387-.252a9.446,9.446,0,0,0-2.6-1.143,9.172,9.172,0,0,0-7.2,1.172l-.34.229-.545-.551-.551-.551.744-.75a8.121,8.121,0,0,0,.832-.932.87.87,0,0,0-1.155-1.155,8.53,8.53,0,0,0-.938.832l-.744.744L35.29-508.97l-1.272-1.272h1.659c1.547,0,1.67-.006,1.887-.117a.925.925,0,0,0,.469-.762.925.925,0,0,0-.469-.762c-.223-.111-.334-.117-3.059-.117C31.8-511.994,31.662-511.988,31.457-511.877Zm13.785,6.7a6.745,6.745,0,0,1,2.028.61A6.963,6.963,0,0,1,49.35-503.1a7.277,7.277,0,0,1,.873,9.3,8.839,8.839,0,0,1-1.9,1.9,7.3,7.3,0,0,1-8.275-.006,8.813,8.813,0,0,1-1.9-1.893,7.311,7.311,0,0,1,0-8.275,8.841,8.841,0,0,1,1.9-1.9A7.32,7.32,0,0,1,45.242-505.172Z"/>
  </g>
</svg>
