<svg xmlns="http://www.w3.org/2000/svg" width="29.983" height="30" viewBox="0 0 29.983 30">
  <g id="male_active" transform="translate(-22.541 490.204)">
    <path id="Path_1137" data-name="Path 1137" d="M195.895-335.659a1.513,1.513,0,0,0-.543,2.314c.431.515.646.553,2.951.553h2.089l-4.047,4.047-4.038,4.038-.6-.384a10.509,10.509,0,0,0-15.131,4.15,10.426,10.426,0,0,0,1.986,12.086A10.461,10.461,0,0,0,189.29-306.3a12.958,12.958,0,0,0,3.007-1.565,11.749,11.749,0,0,0,3.27-4.075A10.587,10.587,0,0,0,194.8-322l-.384-.6,4.019-4.019,4.019-4.019.047,2.192c.047,2.033.066,2.22.244,2.455a1.323,1.323,0,0,0,1.255.646,1.323,1.323,0,0,0,1.255-.646c.2-.253.2-.356.2-4.553s0-4.3-.2-4.553a2.554,2.554,0,0,0-.45-.45c-.253-.187-.375-.2-4.441-.216A25.128,25.128,0,0,0,195.895-335.659Zm-8.1,12.076a7.333,7.333,0,0,1,2.277,1,7.5,7.5,0,0,1,1.237,11.57,7.5,7.5,0,0,1-11.57-1.237,6.77,6.77,0,0,1-1.171-4.057,6.781,6.781,0,0,1,1.162-4.047,7.689,7.689,0,0,1,4.881-3.317A9.564,9.564,0,0,1,187.791-323.583Z" transform="translate(-152.927 -154.436)" fill="#0b45f3"/>
  </g>
</svg>
