<svg xmlns="http://www.w3.org/2000/svg" width="21.929" height="19.034" viewBox="0 0 21.929 19.034">
  <path id="exp" d="M77.678,36.949a.685.685,0,0,0-.688.682v2.408H70.668q-.033,0-.066,0a.685.685,0,0,0-.618.682v3.448l8.569,2.3v-.025a.685.685,0,0,1,.682-.688h3.425a.685.685,0,0,1,.682.688v.027l8.57-2.3V40.722a.685.685,0,0,0-.688-.682H84.907V37.631a.685.685,0,0,0-.688-.682Zm.683,1.37h5.175v1.72H78.361Zm-8.377,7.272V55.3a.685.685,0,0,0,.684.682H91.225a.685.685,0,0,0,.688-.682V45.6l-8.569,2.293v1.218a.685.685,0,0,1-.682.688H79.236a.685.685,0,0,1-.682-.688V47.891Zm9.94,1.539a.686.686,0,0,1,0,.494v.8h2.049v-.8a.686.686,0,0,1,0-.494Z" transform="translate(-69.984 -36.949)" fill="#fff"/>
</svg>
