<svg xmlns="http://www.w3.org/2000/svg" width="31" height="31" viewBox="0 0 31 31">
  <g id="Group_3" data-name="Group 3" transform="translate(-57 -715.377)">
    <circle id="Ellipse_1480" data-name="Ellipse 1480" cx="15.5" cy="15.5" r="15.5" transform="translate(57 715.377)" fill="#e8ecfc"/>
    <g id="Group_22734" data-name="Group 22734" transform="translate(6.485 8.151)">
      <path id="Path_155" data-name="Path 155" d="M190.1,46.444a1.162,1.162,0,0,0,1.643,0l4.346-4.346a.539.539,0,0,0,0-.763.553.553,0,0,0-.763,0L191.46,45.2V35.836a.54.54,0,1,0-1.079,0V45.2l-3.865-3.865a.553.553,0,0,0-.763,0,.539.539,0,0,0,0,.763Z" transform="translate(-125.044 680.081)" fill="#1f47e3" stroke="#1f47e3" stroke-width="0.5"/>
      <g id="Rectangle_35" data-name="Rectangle 35" transform="translate(59 728.882)" fill="#1f47e3" stroke="#1f47e3" stroke-width="1">
        <rect width="14.327" height="1.194" rx="0.597" stroke="none"/>
        <rect x="0.5" y="0.5" width="13.327" height="0.194" rx="0.097" fill="none"/>
      </g>
    </g>
  </g>
</svg>
