<svg xmlns="http://www.w3.org/2000/svg" width="29.5" height="27.866" viewBox="0 0 29.5 27.866">
  <g id="like_selected" transform="translate(-2.25 -3.25)">
    <path id="Path_24313" data-name="Path 24313" d="M9.588,15.529V28.706a1.647,1.647,0,0,1-1.647,1.647H4.647A1.647,1.647,0,0,1,3,28.706V17.176a1.647,1.647,0,0,1,1.647-1.647H9.588a6.588,6.588,0,0,0,6.588-6.588V7.294a3.294,3.294,0,1,1,6.588,0v8.235h4.941A3.294,3.294,0,0,1,31,18.824l-1.647,8.235c-.487,2.076-1.83,3.419-3.294,3.294H14.529a4.941,4.941,0,0,1-4.941-4.941" fill="#168ce7" stroke="#fff" stroke-linecap="round" stroke-linejoin="round" stroke-width="1.5"/>
  </g>
</svg>
