<svg xmlns="http://www.w3.org/2000/svg" width="234.557" height="44.386" viewBox="0 0 234.557 44.386">
  <g id="logo" transform="translate(-0.881 -187.295)">
    <path id="Path_4807" data-name="Path 4807" d="M565.609,196.808a12.107,12.107,0,0,1,8.908,3.712,12.238,12.238,0,0,1,3.693,8.956v10.557a1.984,1.984,0,0,1-.624,1.485,2.013,2.013,0,0,1-1.477.626h-.069a2.013,2.013,0,0,1-1.477-.626,1.986,1.986,0,0,1-.623-1.485v-1.067a12.632,12.632,0,1,1-8.331-22.158Zm0,4.292a8.029,8.029,0,0,0-5.908,2.459,8.364,8.364,0,0,0,5.908,14.292,7.991,7.991,0,0,0,5.885-2.436,8.406,8.406,0,0,0,0-11.856A7.953,7.953,0,0,0,565.609,201.1Zm29.817,16.705a7.953,7.953,0,0,0,5.885-2.459,8.4,8.4,0,0,0,0-11.856,8.354,8.354,0,0,0-11.793,0,8.462,8.462,0,0,0,0,11.856A8.027,8.027,0,0,0,595.426,217.806Zm-10.5,13.875a2.014,2.014,0,0,1-1.477-.627,2.035,2.035,0,0,1-.623-1.485V209.43a12.243,12.243,0,0,1,3.716-8.933,12.544,12.544,0,0,1,17.793.023,12.708,12.708,0,0,1,0,17.912,12.527,12.527,0,0,1-17.24.534v10.6a2.035,2.035,0,0,1-.623,1.485,2.013,2.013,0,0,1-1.477.627Zm39.626-13.875a7.953,7.953,0,0,0,5.885-2.459,8.406,8.406,0,0,0,0-11.856,8.354,8.354,0,0,0-11.793,0,8.463,8.463,0,0,0,0,11.856A8.029,8.029,0,0,0,624.551,217.806Zm-10.5,13.875a2.013,2.013,0,0,1-1.477-.627,2.035,2.035,0,0,1-.623-1.485V209.43a12.243,12.243,0,0,1,3.716-8.933,12.544,12.544,0,0,1,17.793.023,12.708,12.708,0,0,1,0,17.912,12.527,12.527,0,0,1-17.24.534v10.6a2.035,2.035,0,0,1-.623,1.485,2.013,2.013,0,0,1-1.477.627Zm30.118-44.386a2.094,2.094,0,0,1,2.1,2.111v30.627a1.985,1.985,0,0,1-.623,1.485,2.013,2.013,0,0,1-1.477.626H644.1a2.013,2.013,0,0,1-1.477-.626,1.986,1.986,0,0,1-.623-1.485V189.406a2.094,2.094,0,0,1,2.1-2.111ZM656.1,198.942a2.061,2.061,0,0,0-.623-1.508,2.013,2.013,0,0,0-1.477-.627h-.069a2.013,2.013,0,0,0-1.477.627,2.062,2.062,0,0,0-.623,1.508v12.181a10.455,10.455,0,0,0,16.662,8.469v1.555a6,6,0,0,1-1.869,4.408,5.933,5.933,0,0,1-4.315,1.833,6.994,6.994,0,0,1-3.6-.975,6.275,6.275,0,0,1-2.469-2.529,2.135,2.135,0,0,0-1.085-1,2.047,2.047,0,0,0-1.454-.023l-.092.046a1.94,1.94,0,0,0-1.247,1.206,1.979,1.979,0,0,0,.069,1.74,10.188,10.188,0,0,0,3.923,4.2,11.258,11.258,0,0,0,5.954,1.624,10.8,10.8,0,0,0,10.454-10.534v-22.2a2.061,2.061,0,0,0-.623-1.508,1.964,1.964,0,0,0-1.477-.627h-.046a2.04,2.04,0,0,0-1.5.627,2.061,2.061,0,0,0-.623,1.508v12.181a5.977,5.977,0,0,1-1.823,4.408,5.886,5.886,0,0,1-4.362,1.833,5.989,5.989,0,0,1-4.408-1.833,6.066,6.066,0,0,1-1.8-4.408Z" transform="translate(-522.417)" fill="#168ce7"/>
    <path id="Path_4808" data-name="Path 4808" d="M2866.94,187.295a2.089,2.089,0,0,1,2.1,2.1v16.686h1.569a8.147,8.147,0,0,0,5.608-2.146,8.044,8.044,0,0,0,2.677-5.285,2.039,2.039,0,0,1,.692-1.339,2.01,2.01,0,0,1,1.408-.554h.069a2,2,0,0,1,1.547.692,2.049,2.049,0,0,1,.53,1.639,12,12,0,0,1-4.985,8.816,12.664,12.664,0,0,1,6.069,10.778v1.177a1.97,1.97,0,0,1-.623,1.477,2.018,2.018,0,0,1-1.477.623h-.07a2.018,2.018,0,0,1-1.477-.623,1.969,1.969,0,0,1-.623-1.477v-1.177a8.312,8.312,0,0,0-8.331-8.285h-2.584v9.462a1.969,1.969,0,0,1-.624,1.477,2.018,2.018,0,0,1-1.477.623h-.069a2.019,2.019,0,0,1-1.477-.623,1.97,1.97,0,0,1-.623-1.477V189.4a2.088,2.088,0,0,1,2.1-2.1Zm33.833,9.462a12.608,12.608,0,0,1,12.6,12.6v10.5a1.97,1.97,0,0,1-.623,1.477,2.019,2.019,0,0,1-1.477.623h-.069a2.019,2.019,0,0,1-1.477-.623,1.97,1.97,0,0,1-.623-1.477V218.8a12.594,12.594,0,1,1-8.331-22.04Zm0,4.27a8.352,8.352,0,1,0,5.885,2.446A8.05,8.05,0,0,0,2900.772,201.027Zm26.7-4.27a9.144,9.144,0,0,0-6.715,2.769,9.39,9.39,0,0,0-2.77,6.716v13.616a1.97,1.97,0,0,0,.623,1.477,2.019,2.019,0,0,0,1.477.623h.069a2.018,2.018,0,0,0,1.477-.623,1.969,1.969,0,0,0,.623-1.477V206.242a5.153,5.153,0,0,1,1.523-3.693,5.029,5.029,0,0,1,3.692-1.523h1.316a2.045,2.045,0,0,0,1.5-.623,2.009,2.009,0,0,0,.6-1.477v-.046a2.086,2.086,0,0,0-.6-1.5,2.045,2.045,0,0,0-1.5-.623Zm8.147-9.462a2.088,2.088,0,0,1,2.1,2.1v7.362h4.154a2.019,2.019,0,0,1,1.477.623,2.044,2.044,0,0,1,.623,1.5v.046a1.969,1.969,0,0,1-.623,1.477,2.019,2.019,0,0,1-1.477.623h-4.154V215.4a2.2,2.2,0,0,0,.669,1.615,2.229,2.229,0,0,0,1.639.669h1.846a2.019,2.019,0,0,1,1.477.623,2.044,2.044,0,0,1,.623,1.5v.046a1.969,1.969,0,0,1-.623,1.477,2.019,2.019,0,0,1-1.477.623h-1.846a6.54,6.54,0,0,1-6.577-6.554V189.4a2.088,2.088,0,0,1,2.1-2.1Z" transform="translate(-2708.537)" fill="#168ce7"/>
    <path id="Path_4809" data-name="Path 4809" d="M17.857,385.692a8.03,8.03,0,0,1-4.387,1.3,8.169,8.169,0,1,1,6.667-3.514l5.922,4.189v-8.708q0-.083,0-.166a12.589,12.589,0,1,0-25.177,0q0,.083,0,.166V391.5H26.059v0Z" transform="translate(0 -169.169)" fill="#168ce7" fill-rule="evenodd"/>
    <path id="Path_4810" data-name="Path 4810" d="M162.539,210.988a4.111,4.111,0,1,0-4.111-4.111A4.111,4.111,0,0,0,162.539,210.988Z" transform="translate(-149.069 -14.638)" fill="#168ce7"/>
    <path id="Path_4811" data-name="Path 4811" d="M116.786,496.034a.7.7,0,0,1-.1-.008.685.685,0,0,1-.578-.778,6.173,6.173,0,0,1,3.617-4.837.685.685,0,0,1,.493,1.279,4.8,4.8,0,0,0-2.755,3.759.685.685,0,0,1-.677.585Z" transform="translate(-109.019 -286.663)" fill="#168ce7"/>
  </g>
</svg>
