<svg xmlns="http://www.w3.org/2000/svg" width="44" height="44" viewBox="0 0 44 44">
  <g id="message" transform="translate(-0.356 0)">
    <circle id="Ellipse_318" data-name="Ellipse 318" cx="22" cy="22" r="22" transform="translate(0.356 0)" fill="#1a73e8"/>
    <g id="Group_21747" data-name="Group 21747" transform="translate(9.566 13.199)">
      <g id="Group_21746" data-name="Group 21746">
        <path id="Path_28113" data-name="Path 28113" d="M114.963,176.124H100.825a3.656,3.656,0,0,1-3.764-3.529v1.155a3.856,3.856,0,0,0,3.764,3.765h14.138a3.856,3.856,0,0,0,3.764-3.765v-1.176A3.673,3.673,0,0,1,114.963,176.124ZM97.039,165.985v-1.6l-2.631-4.342a1.028,1.028,0,0,1-.192-.663v1.839a1.114,1.114,0,0,0,.171.535Z" transform="translate(-94.212 -158.67)" fill="#185abc"/>
        <path id="Path_28114" data-name="Path 28114" d="M115.035,150.712H95.228a.833.833,0,0,0-.706,1.412l2.588,4.492v8.021a3.615,3.615,0,0,0,3.529,3.764h14.373a3.826,3.826,0,0,0,3.764-3.764V154.5A3.8,3.8,0,0,0,115.035,150.712Z" transform="translate(-94.283 -150.712)" fill="#fff"/>
        <g id="Group_21745" data-name="Group 21745" transform="translate(5.651 3.786)">
          <path id="Path_28115" data-name="Path 28115" d="M178.443,199.068H164.776a.965.965,0,1,1,0-1.882h13.668a.965.965,0,1,1,0,1.882Zm0,3.765H164.776a.965.965,0,1,1,0-1.882h13.668a.965.965,0,1,1,0,1.882Zm-3.786,3.786h-9.9a.965.965,0,1,1,0-1.882h9.9a.965.965,0,1,1,0,1.882Z" transform="translate(-163.578 -197.186)" fill="#8ab4f8"/>
        </g>
      </g>
    </g>
  </g>
</svg>
