<svg xmlns="http://www.w3.org/2000/svg" width="23.873" height="19.528" viewBox="0 0 23.873 19.528">
  <g id="share" transform="translate(0.75 0.765)">
    <path id="Path_5" data-name="Path 5" d="M0,17.382A.7.7,0,0,0,.553,18a.7.7,0,0,0,.8-.485A11.7,11.7,0,0,1,4.5,13.474a11.928,11.928,0,0,1,7.48-2.7h2.844v2.467a.593.593,0,0,0,.189.418.58.58,0,0,0,.377.148.553.553,0,0,0,.377-.148L22.132,7.3a.566.566,0,0,0,0-.8L15.784.17a.566.566,0,0,0-.957.391V3.028H13.681A13.856,13.856,0,0,0,2.9,8.419,14.53,14.53,0,0,0,0,17.382Z" transform="translate(0.002 -0.014)" fill="none" stroke="#505050" stroke-width="1.5"/>
  </g>
</svg>
