<svg xmlns="http://www.w3.org/2000/svg" width="44" height="44" viewBox="0 0 44 44">
  <g id="telegram" transform="translate(0 0)">
    <path id="Path_28118" data-name="Path 28118" d="M22,44A22,22,0,1,0,0,22,22,22,0,0,0,22,44Z" transform="translate(0 0)" fill="#34aadf"/>
    <path id="Path_28119" data-name="Path 28119" d="M88.226,154.908s10.87-4.461,14.639-6.032c1.445-.628,6.346-2.639,6.346-2.639s2.262-.88,2.073,1.257c-.063.88-.565,3.958-1.068,7.288-.754,4.712-1.571,9.864-1.571,9.864s-.126,1.445-1.194,1.7-2.827-.88-3.141-1.131c-.251-.188-4.712-3.016-6.346-4.4a1.19,1.19,0,0,1,.063-2.011c2.262-2.073,4.964-4.649,6.6-6.283.754-.754,1.508-2.513-1.634-.377-4.461,3.079-8.859,5.969-8.859,5.969a3.692,3.692,0,0,1-2.89.063c-1.885-.565-4.084-1.319-4.084-1.319S85.65,155.913,88.226,154.908Z" transform="translate(-78.971 -133.071)" fill="#fff"/>
  </g>
</svg>
