<svg xmlns="http://www.w3.org/2000/svg" width="44" height="44" viewBox="0 0 44 44">
  <g id="twitter" transform="translate(-0.358 0)">
    <circle id="Ellipse_312" data-name="Ellipse 312" cx="22" cy="22" r="22" transform="translate(0.358 0)" fill="#1da1f2"/>
    <path id="Icon_awesome-twitter" data-name="Icon awesome-twitter" d="M23.626,8.711c.017.234.017.468.017.7A15.25,15.25,0,0,1,8.288,24.768,15.251,15.251,0,0,1,0,22.345a11.164,11.164,0,0,0,1.3.067A10.808,10.808,0,0,0,8,20.106a5.406,5.406,0,0,1-5.046-3.743,6.806,6.806,0,0,0,1.019.084,5.708,5.708,0,0,0,1.42-.184,5.4,5.4,0,0,1-4.328-5.3V10.9a5.435,5.435,0,0,0,2.439.685A5.4,5.4,0,0,1,1.838,4.367a15.341,15.341,0,0,0,11.128,5.648,6.092,6.092,0,0,1-.134-1.236,5.4,5.4,0,0,1,9.34-3.693,10.626,10.626,0,0,0,3.425-1.3,5.382,5.382,0,0,1-2.373,2.974,10.819,10.819,0,0,0,3.108-.835,11.6,11.6,0,0,1-2.707,2.79Z" transform="translate(10.003 8.436)" fill="#fff"/>
  </g>
</svg>
