<svg xmlns="http://www.w3.org/2000/svg" width="44" height="44" viewBox="0 0 44 44">
  <g id="whatsapp" transform="translate(0.275 0)">
    <circle id="Ellipse_313" data-name="Ellipse 313" cx="22" cy="22" r="22" transform="translate(-0.275 0)" fill="#35d953"/>
    <path id="Icon_awesome-whatsapp" data-name="Icon awesome-whatsapp" d="M22.083,5.879a13.037,13.037,0,0,0-9.1-3.629A12.645,12.645,0,0,0,.11,14.625a12.023,12.023,0,0,0,1.716,6.187L0,27.223,6.824,25.5a13.239,13.239,0,0,0,6.151,1.505h.006c7.09,0,12.992-5.552,12.992-12.375a12.2,12.2,0,0,0-3.89-8.752Zm-9.1,19.042a11.006,11.006,0,0,1-5.45-1.433l-.388-.223L3.1,24.285l1.078-3.8-.255-.39a9.962,9.962,0,0,1-1.635-5.474A10.512,10.512,0,0,1,12.986,4.34a10.821,10.821,0,0,1,7.56,3.016A10.139,10.139,0,0,1,23.8,14.631C23.8,20.305,18.877,24.921,12.981,24.921Zm5.867-7.7c-.319-.156-1.9-.9-2.2-1s-.51-.156-.725.156-.829,1-1.02,1.215-.377.234-.7.078a8.662,8.662,0,0,1-4.377-3.679c-.33-.546.33-.507.945-1.689a.554.554,0,0,0-.029-.541c-.081-.156-.725-1.678-.991-2.3-.261-.6-.528-.518-.725-.53s-.4-.011-.615-.011A1.214,1.214,0,0,0,7.56,9.3a3.42,3.42,0,0,0-1.125,2.581,5.939,5.939,0,0,0,1.31,3.2,14.164,14.164,0,0,0,5.5,4.671c2.041.847,2.841.92,3.861.775a3.3,3.3,0,0,0,2.168-1.472,2.493,2.493,0,0,0,.186-1.472C19.381,17.446,19.167,17.368,18.848,17.217Z" transform="translate(9.016 6.844)" fill="#fff"/>
  </g>
</svg>
