<svg xmlns="http://www.w3.org/2000/svg" width="25" height="25" viewBox="0 0 25 25">
  <path id="checkbox" d="M27.417,4.5H6.583A2.081,2.081,0,0,0,4.5,6.583V27.417A2.081,2.081,0,0,0,6.583,29.5H27.417A2.081,2.081,0,0,0,29.5,27.417V6.583A2.081,2.081,0,0,0,27.417,4.5ZM24,13.257,15.294,22h-.007a1.176,1.176,0,0,1-.755.358,1.14,1.14,0,0,1-.762-.371l-3.646-3.646a.259.259,0,0,1,0-.371l1.159-1.159a.252.252,0,0,1,.365,0L14.539,19.7l7.943-8a.257.257,0,0,1,.182-.078h0a.236.236,0,0,1,.182.078l1.139,1.178A.257.257,0,0,1,24,13.257Z" transform="translate(-4.5 -4.5)" fill="#252728"/>
</svg>
