<svg xmlns="http://www.w3.org/2000/svg" width="27.747" height="28" viewBox="0 0 27.747 28">
  <path id="availability" d="M3.083,28A3.087,3.087,0,0,1,0,24.915V6.17A3.087,3.087,0,0,1,3.083,3.085H4.368V4.628a2.312,2.312,0,1,0,4.624,0V3.085h2.569V4.628a2.312,2.312,0,1,0,4.625,0V3.085h2.569V4.628a2.312,2.312,0,1,0,4.624,0V3.085h1.285A3.088,3.088,0,0,1,27.747,6.17V24.915A3.087,3.087,0,0,1,24.664,28ZM2.056,10.283V24.915a1.029,1.029,0,0,0,1.028,1.028h21.58a1.029,1.029,0,0,0,1.028-1.028V10.283a1.028,1.028,0,0,0-1.028-1.028H3.083A1.028,1.028,0,0,0,2.056,10.283Zm13.511,13.5a.86.86,0,0,1-.86-.861V21.2a.861.861,0,0,1,.86-.861h1.72a.861.861,0,0,1,.861.861v1.721a.861.861,0,0,1-.861.861Zm-5.106,0a.861.861,0,0,1-.86-.861V21.2a.861.861,0,0,1,.86-.861h1.72a.861.861,0,0,1,.86.861v1.721a.86.86,0,0,1-.86.861Zm-5.106,0a.861.861,0,0,1-.86-.861V21.2a.861.861,0,0,1,.86-.861h1.72a.861.861,0,0,1,.86.861v1.721a.86.86,0,0,1-.86.861Zm15.317-4.457a.861.861,0,0,1-.86-.861V16.739a.861.861,0,0,1,.86-.861h1.72a.861.861,0,0,1,.861.861V18.46a.861.861,0,0,1-.861.861Zm-5.106,0a.861.861,0,0,1-.86-.861V16.739a.861.861,0,0,1,.86-.861h1.72a.861.861,0,0,1,.861.861V18.46a.861.861,0,0,1-.861.861Zm-5.106,0a.861.861,0,0,1-.86-.861V16.739a.861.861,0,0,1,.86-.861h1.72a.861.861,0,0,1,.86.861V18.46a.861.861,0,0,1-.86.861Zm-5.106,0a.861.861,0,0,1-.86-.861V16.739a.861.861,0,0,1,.86-.861h1.72a.86.86,0,0,1,.86.861V18.46a.861.861,0,0,1-.86.861Zm15.317-4.457a.861.861,0,0,1-.86-.861V12.281a.861.861,0,0,1,.86-.861h1.72a.861.861,0,0,1,.861.86V14a.861.861,0,0,1-.861.861Zm-5.106,0a.861.861,0,0,1-.86-.861V12.281a.861.861,0,0,1,.86-.861h1.72a.86.86,0,0,1,.861.86V14a.861.861,0,0,1-.861.861Zm-5.106,0A.861.861,0,0,1,9.6,14V12.281a.861.861,0,0,1,.86-.861h1.72a.861.861,0,0,1,.86.86V14a.861.861,0,0,1-.86.861Zm-5.106,0A.861.861,0,0,1,4.5,14V12.281a.861.861,0,0,1,.86-.861h1.72a.86.86,0,0,1,.86.86V14a.861.861,0,0,1-.86.861ZM19.526,4.628V1.543a1.541,1.541,0,1,1,3.083,0V4.627a1.541,1.541,0,1,1-3.083,0Zm-7.194,0V1.543a1.541,1.541,0,1,1,3.082,0V4.627a1.541,1.541,0,1,1-3.082,0Zm-7.194,0V1.543a1.542,1.542,0,1,1,3.083,0V4.627a1.542,1.542,0,1,1-3.083,0Z"/>
</svg>
