<svg xmlns="http://www.w3.org/2000/svg" width="41.903" height="28" viewBox="0 0 41.903 28">
  <path id="education_detail" d="M8.843,21.66V17.326a1.358,1.358,0,0,1,2.04-1.348l9.384,4.006.339.145h0a.993.993,0,0,0,.679,0l.339-.145,9.385-4.006a1.358,1.358,0,0,1,2.04,1.348V21.66c0,3.5-5.419,6.34-12.1,6.34S8.843,25.162,8.843,21.66Zm30.61,1.146V20.688a.769.769,0,0,1,.36-.617V10.34L33.05,13.227l-10.063,4.3a5.95,5.95,0,0,1-4.08,0L.845,9.813c-1.127-.481-1.127-1.261,0-1.742L18.906.361a5.942,5.942,0,0,1,4.081,0l18.061,7.71c.926.4,1.091.993.495,1.46v10.54a.769.769,0,0,1,.361.617v2.119c0,.481-.549.871-1.225.871S39.454,23.288,39.454,22.807Z" fill="#313132"/>
</svg>
