<svg xmlns="http://www.w3.org/2000/svg" width="32.312" height="28" viewBox="0 0 32.312 28">
  <path id="Union_37" data-name="Union 37" d="M11.482,28a1.557,1.557,0,0,1-1.536-1.536l-.213-9.348c-.512-.128-1.025-.213-1.537-.341A9.627,9.627,0,0,1,1.41,10.458L.129,6.659a2.442,2.442,0,0,1,1.92-3.2c1.2-.213,2.348.6,2.86,2.177L6.062,9.092a4.28,4.28,0,0,0,3.115,2.9,27.487,27.487,0,0,0,6.744.812h.428a27.741,27.741,0,0,0,6.744-.812,4.352,4.352,0,0,0,3.115-2.9l1.324-3.884a2.507,2.507,0,0,1,2.731-1.75,2.443,2.443,0,0,1,1.922,3.2L30.86,10.543a9.73,9.73,0,0,1-6.786,6.274c-.47.129-.982.213-1.452.3l-.213,9.348A1.53,1.53,0,0,1,20.872,28Zm3.586-13.615v1.408a.275.275,0,0,0,.255.255h.428l-.94,6.745a.188.188,0,0,0,.043.213l1.109,1.237a.258.258,0,0,0,.341,0l1.109-1.237c.043-.043.043-.129.171-.213l-.938-6.745h.426a.276.276,0,0,0,.257-.255V14.385a.276.276,0,0,0-.257-.257h-1.75A.275.275,0,0,0,15.068,14.385Zm-4.4-8.964a5.421,5.421,0,1,1,5.421,5.421A5.421,5.421,0,0,1,10.671,5.421Z" fill="#313132"/>
</svg>
