<svg xmlns="http://www.w3.org/2000/svg" width="33.838" height="24.523" viewBox="0 0 33.838 24.523">
  <g id="portfolio" transform="translate(-0.176 433.838)">
    <path id="Path_5566" data-name="Path 5566" d="M11.476-433.781a2.6,2.6,0,0,0-1.964,1.432,2.425,2.425,0,0,0-.2,1.207l-.027.832-3.962.02-3.968.02-.327.191a1.846,1.846,0,0,0-.8,1c-.048.164-.061,2.939-.055,7.848l.02,7.589,2.823-5.728c1.555-3.143,2.925-5.878,3.041-6.062a5.08,5.08,0,0,1,2.468-1.855l.532-.191,9.328-.02,9.321-.014v-.757c0-1.077-.232-1.521-.989-1.875l-.341-.164H18.663l-.034-.771a3.591,3.591,0,0,0-.184-1.152,2.6,2.6,0,0,0-2.093-1.561C15.8-433.856,12.028-433.856,11.476-433.781Zm5.032,1.773c.334.2.43.45.43,1.125v.58h-6v-.47a5.24,5.24,0,0,1,.041-.682,1,1,0,0,1,.593-.641c.082-.014,1.18-.034,2.434-.041C16.16-432.144,16.3-432.138,16.508-432.008Z" transform="translate(0)"/>
    <path id="Path_5567" data-name="Path 5567" d="M16.078-315.822a3.323,3.323,0,0,0-1.467,1.084c-.119.191-1.653,3.334-3.4,6.989-3.417,7.139-3.378,7.057-3.127,7.541a.987.987,0,0,0,.357.348c.225.116.82.123,11.971.143,7.734.014,11.911-.007,12.249-.048a2.647,2.647,0,0,0,1.7-.886l.43-.45,3.226-6.771c1.9-3.982,3.246-6.873,3.265-7.03a.843.843,0,0,0-.469-.9c-.258-.123-.734-.13-12.334-.123C18-315.918,16.362-315.9,16.078-315.822Z" transform="translate(-7.271 -109.602)"/>
  </g>
</svg>
