<svg xmlns="http://www.w3.org/2000/svg" width="20.921" height="28" viewBox="0 0 20.921 28">
  <path id="Union_38" data-name="Union 38" d="M9.446,27.789A2.542,2.542,0,0,1,8.063,26.3H6.218a.848.848,0,1,1,0-1.7H14.7a.848.848,0,0,1,0,1.7H12.858a2.543,2.543,0,0,1-3.412,1.486ZM6.218,23.758a.848.848,0,1,1,0-1.7H14.7a.848.848,0,0,1,0,1.7Zm0-2.546a.848.848,0,1,1,0-1.7H7.555l0,0L4.965,16.039a6.854,6.854,0,1,1,10.992,0l-2.588,3.475,0,0H14.7a.848.848,0,0,1,0,1.7ZM7.6,13.15a.848.848,0,0,0,.735,1.273H9.61v5.091l0,0h1.7l0,0V14.423H12.58a.848.848,0,1,0,0-1.7H8.337A.849.849,0,0,0,7.6,13.15Zm12.044,5.079-1.47-.848a.848.848,0,1,1,.848-1.47l1.47.848a.848.848,0,1,1-.848,1.47ZM.63,18.315a.848.848,0,0,1-.2-1.556l1.47-.848h0a.848.848,0,0,1,.848,1.469l-1.47.848a.849.849,0,0,1-.645.086ZM18.6,8.095a.849.849,0,0,1-.425-1.583l1.47-.848a.848.848,0,1,1,.848,1.47l-1.47.848a.843.843,0,0,1-.423.114ZM1.9,7.981.426,7.132a.848.848,0,0,1,.848-1.47l1.47.848A.848.848,0,0,1,1.9,7.981ZM9.86,3.146a.848.848,0,0,1-.249-.6V.849a.848.848,0,1,1,1.7,0v1.7a.848.848,0,0,1-1.448.6Z" transform="translate(0 0)" fill="#313132"/>
</svg>
